<?xml version="1.0" encoding="utf-8" standalone="no"?>
<!DOCTYPE svg PUBLIC "-//W3C//DTD SVG 1.1//EN"
  "http://www.w3.org/Graphics/SVG/1.1/DTD/svg11.dtd">
<svg xmlns:xlink="http://www.w3.org/1999/xlink" width="864pt" height="288pt" viewBox="0 0 864 288" xmlns="http://www.w3.org/2000/svg" version="1.1">
 <metadata>
  <rdf:RDF xmlns:dc="http://purl.org/dc/elements/1.1/" xmlns:cc="http://creativecommons.org/ns#" xmlns:rdf="http://www.w3.org/1999/02/22-rdf-syntax-ns#">
   <cc:Work>
    <dc:type rdf:resource="http://purl.org/dc/dcmitype/StillImage"/>
    <dc:date>2026-06-16T02:55:21.567699</dc:date>
    <dc:format>image/svg+xml</dc:format>
    <dc:creator>
     <cc:Agent>
      <dc:title>Matplotlib v3.11.0, https://matplotlib.org/</dc:title>
     </cc:Agent>
    </dc:creator>
   </cc:Work>
  </rdf:RDF>
 </metadata>
 <defs>
  <style type="text/css">*{stroke-linejoin: round; stroke-linecap: butt}</style>
 </defs>
 <g id="figure_1">
  <g id="patch_1">
   <path d="M 0 288 
L 864 288 
L 864 0 
L 0 0 
L 0 288 
z
" style="fill: none"/>
  </g>
  <g id="axes_1">
   <g id="FillBetweenPolyCollection_1">
    <defs>
     <path id="m6cf62f1c46" d="M 138.436364 -41.76 
L 138.436364 -41.76 
L 140.10411 -41.76 
L 141.771856 -41.76 
L 143.439601 -41.76 
L 145.107347 -41.76 
L 146.775093 -41.76 
L 148.442839 -41.76 
L 150.110585 -41.76 
L 151.778331 -41.76 
L 153.446077 -42.43651 
L 155.113823 -42.43651 
L 156.781569 -42.43651 
L 158.449315 -43.78953 
L 160.117061 -44.46604 
L 161.784807 -45.14255 
L 163.452553 -45.81906 
L 165.120299 -45.81906 
L 166.788045 -46.49557 
L 168.455791 -47.172081 
L 170.123537 -53.260671 
L 171.791283 -53.260671 
L 173.459029 -53.260671 
L 175.126775 -53.260671 
L 176.794521 -53.260671 
L 178.462267 -53.260671 
L 180.130012 -53.260671 
L 181.797758 -53.260671 
L 183.465504 -53.260671 
L 185.13325 -53.260671 
L 186.800996 -53.260671 
L 188.468742 -53.260671 
L 190.136488 -53.260671 
L 191.804234 -53.260671 
L 193.47198 -53.260671 
L 195.139726 -53.260671 
L 196.807472 -53.260671 
L 198.475218 -53.260671 
L 200.142964 -53.260671 
L 201.81071 -53.260671 
L 203.478456 -53.260671 
L 205.146202 -53.260671 
L 206.813948 -53.260671 
L 208.481694 -53.260671 
L 210.14944 -53.260671 
L 211.817186 -53.260671 
L 213.484932 -53.260671 
L 215.152677 -53.260671 
L 216.820423 -53.260671 
L 218.488169 -53.260671 
L 220.155915 -53.260671 
L 221.823661 -53.260671 
L 223.491407 -53.260671 
L 225.159153 -53.260671 
L 226.826899 -53.260671 
L 228.494645 -53.260671 
L 230.162391 -53.260671 
L 231.830137 -53.260671 
L 233.497883 -53.260671 
L 235.165629 -53.260671 
L 236.833375 -53.260671 
L 238.501121 -53.260671 
L 240.168867 -53.260671 
L 241.836613 -53.260671 
L 243.504359 -53.260671 
L 245.172105 -53.260671 
L 246.839851 -53.260671 
L 248.507597 -53.260671 
L 250.175342 -53.260671 
L 251.843088 -53.260671 
L 253.510834 -53.260671 
L 255.17858 -53.260671 
L 256.846326 -53.260671 
L 258.514072 -53.260671 
L 260.181818 -53.260671 
L 261.849564 -53.260671 
L 263.51731 -53.260671 
L 265.185056 -53.260671 
L 266.852802 -53.260671 
L 268.520548 -53.260671 
L 270.188294 -53.260671 
L 271.85604 -53.260671 
L 273.523786 -53.260671 
L 275.191532 -53.260671 
L 276.859278 -53.260671 
L 278.527024 -53.260671 
L 280.19477 -53.260671 
L 281.862516 -53.260671 
L 283.530262 -53.260671 
L 285.198007 -53.260671 
L 286.865753 -53.260671 
L 288.533499 -53.260671 
L 290.201245 -53.260671 
L 291.868991 -53.260671 
L 293.536737 -53.260671 
L 295.204483 -53.260671 
L 296.872229 -53.260671 
L 298.539975 -53.260671 
L 300.207721 -53.260671 
L 301.875467 -53.260671 
L 303.543213 -53.260671 
L 305.210959 -53.260671 
L 306.878705 -53.260671 
L 308.546451 -53.260671 
L 310.214197 -53.260671 
L 311.881943 -53.260671 
L 313.549689 -53.260671 
L 315.217435 -53.260671 
L 316.885181 -53.260671 
L 318.552927 -53.260671 
L 320.220672 -53.260671 
L 321.888418 -53.260671 
L 323.556164 -53.260671 
L 325.22391 -53.260671 
L 326.891656 -53.260671 
L 328.559402 -53.260671 
L 330.227148 -53.260671 
L 331.894894 -53.260671 
L 333.56264 -53.260671 
L 335.230386 -53.260671 
L 336.898132 -53.260671 
L 338.565878 -53.260671 
L 340.233624 -53.260671 
L 341.90137 -53.260671 
L 343.569116 -53.260671 
L 345.236862 -53.260671 
L 346.904608 -53.260671 
L 348.572354 -53.260671 
L 350.2401 -53.260671 
L 351.907846 -53.260671 
L 353.575592 -53.260671 
L 355.243337 -53.260671 
L 356.911083 -53.260671 
L 358.578829 -53.260671 
L 360.246575 -53.260671 
L 361.914321 -53.260671 
L 363.582067 -53.260671 
L 365.249813 -53.260671 
L 366.917559 -53.260671 
L 368.585305 -53.260671 
L 370.253051 -53.260671 
L 371.920797 -53.260671 
L 373.588543 -53.260671 
L 375.256289 -53.260671 
L 376.924035 -53.260671 
L 378.591781 -55.290201 
L 380.259527 -55.290201 
L 381.927273 -55.966711 
L 383.595019 -56.643221 
L 385.262765 -56.643221 
L 386.930511 -56.643221 
L 388.598257 -59.349262 
L 390.266002 -59.349262 
L 391.933748 -59.349262 
L 393.601494 -59.349262 
L 395.26924 -59.349262 
L 396.936986 -59.349262 
L 398.604732 -59.349262 
L 400.272478 -59.349262 
L 401.940224 -59.349262 
L 403.60797 -59.349262 
L 405.275716 -59.349262 
L 406.943462 -59.349262 
L 408.611208 -59.349262 
L 410.278954 -60.025772 
L 411.9467 -60.025772 
L 413.614446 -60.025772 
L 415.282192 -60.025772 
L 416.949938 -60.025772 
L 418.617684 -60.025772 
L 420.28543 -60.025772 
L 421.953176 -63.408322 
L 423.620922 -64.761342 
L 425.288667 -66.114362 
L 426.956413 -66.114362 
L 428.624159 -66.114362 
L 430.291905 -72.202953 
L 431.959651 -76.262013 
L 433.627397 -87.086174 
L 435.295143 -89.792215 
L 436.962889 -93.174765 
L 438.630635 -93.174765 
L 440.298381 -105.351946 
L 441.966127 -106.028456 
L 443.633873 -125.647248 
L 445.301619 -133.765369 
L 446.969365 -137.147919 
L 448.637111 -137.147919 
L 450.304857 -137.147919 
L 451.972603 -137.147919 
L 453.640349 -137.147919 
L 455.308095 -145.26604 
L 456.975841 -145.26604 
L 458.643587 -145.26604 
L 460.311333 -145.26604 
L 461.979078 -150.001611 
L 463.646824 -153.384161 
L 465.31457 -153.384161 
L 466.982316 -154.060671 
L 468.650062 -154.060671 
L 470.317808 -156.090201 
L 471.985554 -156.090201 
L 473.6533 -156.090201 
L 475.321046 -156.090201 
L 476.988792 -156.090201 
L 478.656538 -156.090201 
L 480.324284 -156.090201 
L 481.99203 -157.443221 
L 483.659776 -158.119732 
L 485.327522 -163.531812 
L 486.995268 -165.561342 
L 488.663014 -166.237852 
L 490.33076 -166.237852 
L 491.998506 -166.237852 
L 493.666252 -166.914362 
L 495.333998 -166.914362 
L 497.001743 -166.914362 
L 498.669489 -166.914362 
L 500.337235 -166.914362 
L 502.004981 -166.914362 
L 503.672727 -166.914362 
L 505.340473 -166.914362 
L 507.008219 -166.914362 
L 508.675965 -166.914362 
L 510.343711 -166.914362 
L 512.011457 -166.914362 
L 513.679203 -166.914362 
L 515.346949 -166.914362 
L 517.014695 -166.914362 
L 518.682441 -166.914362 
L 520.350187 -168.943893 
L 522.017933 -168.943893 
L 523.685679 -168.943893 
L 525.353425 -168.943893 
L 527.021171 -168.943893 
L 528.688917 -168.943893 
L 530.356663 -168.943893 
L 532.024408 -168.943893 
L 533.692154 -168.943893 
L 535.3599 -168.943893 
L 537.027646 -168.943893 
L 538.695392 -168.943893 
L 540.363138 -168.943893 
L 542.030884 -168.943893 
L 543.69863 -168.943893 
L 545.366376 -168.943893 
L 547.034122 -168.943893 
L 548.701868 -168.943893 
L 550.369614 -170.296913 
L 552.03736 -170.296913 
L 553.705106 -170.296913 
L 555.372852 -170.296913 
L 557.040598 -170.296913 
L 558.708344 -170.296913 
L 560.37609 -170.296913 
L 562.043836 -170.296913 
L 563.711582 -170.296913 
L 565.379328 -170.296913 
L 567.047073 -170.296913 
L 568.714819 -170.296913 
L 570.382565 -170.296913 
L 572.050311 -170.296913 
L 573.718057 -170.296913 
L 575.385803 -170.296913 
L 577.053549 -170.296913 
L 578.721295 -170.296913 
L 580.389041 -170.973423 
L 582.056787 -171.649933 
L 583.724533 -172.326443 
L 585.392279 -173.002953 
L 587.060025 -173.679463 
L 588.727771 -174.355973 
L 590.395517 -175.032483 
L 592.063263 -175.708993 
L 593.731009 -176.385503 
L 595.398755 -177.062013 
L 597.066501 -177.738523 
L 598.734247 -178.415034 
L 600.401993 -179.091544 
L 602.069738 -179.768054 
L 603.737484 -180.444564 
L 605.40523 -181.121074 
L 607.072976 -181.797584 
L 608.740722 -182.474094 
L 610.408468 -183.150604 
L 612.076214 -183.827114 
L 613.74396 -184.503624 
L 615.411706 -185.180134 
L 617.079452 -185.856644 
L 618.747198 -186.533154 
L 620.414944 -187.209664 
L 622.08269 -187.886174 
L 623.750436 -188.562685 
L 625.418182 -189.239195 
L 627.085928 -189.915705 
L 628.753674 -190.592215 
L 630.42142 -191.268725 
L 632.089166 -191.945235 
L 633.756912 -192.621745 
L 635.424658 -193.298255 
L 637.092403 -193.974765 
L 638.760149 -194.651275 
L 640.427895 -195.327785 
L 642.095641 -196.004295 
L 643.763387 -196.680805 
L 645.431133 -197.357315 
L 647.098879 -198.033826 
L 648.766625 -198.710336 
L 650.434371 -199.386846 
L 652.102117 -200.063356 
L 653.769863 -200.739866 
L 655.437609 -201.416376 
L 657.105355 -202.092886 
L 658.773101 -202.769396 
L 660.440847 -203.445906 
L 662.108593 -204.122416 
L 663.776339 -204.798926 
L 665.444085 -205.475436 
L 667.111831 -206.151946 
L 668.779577 -206.828456 
L 670.447323 -207.504966 
L 672.115068 -208.181477 
L 673.782814 -208.857987 
L 675.45056 -209.534497 
L 677.118306 -210.211007 
L 678.786052 -210.887517 
L 680.453798 -211.564027 
L 682.121544 -212.240537 
L 683.78929 -212.917047 
L 685.457036 -213.593557 
L 687.124782 -214.270067 
L 688.792528 -214.946577 
L 690.460274 -217.652617 
L 692.12802 -218.329128 
L 693.795766 -219.005638 
L 695.463512 -219.682148 
L 697.131258 -220.358658 
L 698.799004 -221.035168 
L 700.46675 -221.711678 
L 702.134496 -222.388188 
L 703.802242 -223.064698 
L 705.469988 -223.741208 
L 707.137733 -224.417718 
L 708.805479 -225.094228 
L 710.473225 -225.770738 
L 712.140971 -226.447248 
L 713.808717 -227.123758 
L 715.476463 -227.800268 
L 717.144209 -228.476779 
L 718.811955 -229.153289 
L 720.479701 -229.829799 
L 722.147447 -230.506309 
L 723.815193 -231.182819 
L 725.482939 -234.565369 
L 727.150685 -235.241879 
L 728.818431 -235.918389 
L 730.486177 -236.594899 
L 732.153923 -237.271409 
L 733.821669 -237.947919 
L 735.489415 -238.62443 
L 737.157161 -239.30094 
L 738.824907 -239.97745 
L 740.492653 -241.33047 
L 742.160399 -242.00698 
L 743.828144 -242.68349 
L 745.49589 -243.36 
L 747.163636 -243.36 
L 747.163636 -41.76 
L 747.163636 -41.76 
L 745.49589 -41.76 
L 743.828144 -41.76 
L 742.160399 -41.76 
L 740.492653 -41.76 
L 738.824907 -41.76 
L 737.157161 -41.76 
L 735.489415 -41.76 
L 733.821669 -41.76 
L 732.153923 -41.76 
L 730.486177 -41.76 
L 728.818431 -41.76 
L 727.150685 -41.76 
L 725.482939 -41.76 
L 723.815193 -41.76 
L 722.147447 -41.76 
L 720.479701 -41.76 
L 718.811955 -41.76 
L 717.144209 -41.76 
L 715.476463 -41.76 
L 713.808717 -41.76 
L 712.140971 -41.76 
L 710.473225 -41.76 
L 708.805479 -41.76 
L 707.137733 -41.76 
L 705.469988 -41.76 
L 703.802242 -41.76 
L 702.134496 -41.76 
L 700.46675 -41.76 
L 698.799004 -41.76 
L 697.131258 -41.76 
L 695.463512 -41.76 
L 693.795766 -41.76 
L 692.12802 -41.76 
L 690.460274 -41.76 
L 688.792528 -41.76 
L 687.124782 -41.76 
L 685.457036 -41.76 
L 683.78929 -41.76 
L 682.121544 -41.76 
L 680.453798 -41.76 
L 678.786052 -41.76 
L 677.118306 -41.76 
L 675.45056 -41.76 
L 673.782814 -41.76 
L 672.115068 -41.76 
L 670.447323 -41.76 
L 668.779577 -41.76 
L 667.111831 -41.76 
L 665.444085 -41.76 
L 663.776339 -41.76 
L 662.108593 -41.76 
L 660.440847 -41.76 
L 658.773101 -41.76 
L 657.105355 -41.76 
L 655.437609 -41.76 
L 653.769863 -41.76 
L 652.102117 -41.76 
L 650.434371 -41.76 
L 648.766625 -41.76 
L 647.098879 -41.76 
L 645.431133 -41.76 
L 643.763387 -41.76 
L 642.095641 -41.76 
L 640.427895 -41.76 
L 638.760149 -41.76 
L 637.092403 -41.76 
L 635.424658 -41.76 
L 633.756912 -41.76 
L 632.089166 -41.76 
L 630.42142 -41.76 
L 628.753674 -41.76 
L 627.085928 -41.76 
L 625.418182 -41.76 
L 623.750436 -41.76 
L 622.08269 -41.76 
L 620.414944 -41.76 
L 618.747198 -41.76 
L 617.079452 -41.76 
L 615.411706 -41.76 
L 613.74396 -41.76 
L 612.076214 -41.76 
L 610.408468 -41.76 
L 608.740722 -41.76 
L 607.072976 -41.76 
L 605.40523 -41.76 
L 603.737484 -41.76 
L 602.069738 -41.76 
L 600.401993 -41.76 
L 598.734247 -41.76 
L 597.066501 -41.76 
L 595.398755 -41.76 
L 593.731009 -41.76 
L 592.063263 -41.76 
L 590.395517 -41.76 
L 588.727771 -41.76 
L 587.060025 -41.76 
L 585.392279 -41.76 
L 583.724533 -41.76 
L 582.056787 -41.76 
L 580.389041 -41.76 
L 578.721295 -41.76 
L 577.053549 -41.76 
L 575.385803 -41.76 
L 573.718057 -41.76 
L 572.050311 -41.76 
L 570.382565 -41.76 
L 568.714819 -41.76 
L 567.047073 -41.76 
L 565.379328 -41.76 
L 563.711582 -41.76 
L 562.043836 -41.76 
L 560.37609 -41.76 
L 558.708344 -41.76 
L 557.040598 -41.76 
L 555.372852 -41.76 
L 553.705106 -41.76 
L 552.03736 -41.76 
L 550.369614 -41.76 
L 548.701868 -41.76 
L 547.034122 -41.76 
L 545.366376 -41.76 
L 543.69863 -41.76 
L 542.030884 -41.76 
L 540.363138 -41.76 
L 538.695392 -41.76 
L 537.027646 -41.76 
L 535.3599 -41.76 
L 533.692154 -41.76 
L 532.024408 -41.76 
L 530.356663 -41.76 
L 528.688917 -41.76 
L 527.021171 -41.76 
L 525.353425 -41.76 
L 523.685679 -41.76 
L 522.017933 -41.76 
L 520.350187 -41.76 
L 518.682441 -41.76 
L 517.014695 -41.76 
L 515.346949 -41.76 
L 513.679203 -41.76 
L 512.011457 -41.76 
L 510.343711 -41.76 
L 508.675965 -41.76 
L 507.008219 -41.76 
L 505.340473 -41.76 
L 503.672727 -41.76 
L 502.004981 -41.76 
L 500.337235 -41.76 
L 498.669489 -41.76 
L 497.001743 -41.76 
L 495.333998 -41.76 
L 493.666252 -41.76 
L 491.998506 -41.76 
L 490.33076 -41.76 
L 488.663014 -41.76 
L 486.995268 -41.76 
L 485.327522 -41.76 
L 483.659776 -41.76 
L 481.99203 -41.76 
L 480.324284 -41.76 
L 478.656538 -41.76 
L 476.988792 -41.76 
L 475.321046 -41.76 
L 473.6533 -41.76 
L 471.985554 -41.76 
L 470.317808 -41.76 
L 468.650062 -41.76 
L 466.982316 -41.76 
L 465.31457 -41.76 
L 463.646824 -41.76 
L 461.979078 -41.76 
L 460.311333 -41.76 
L 458.643587 -41.76 
L 456.975841 -41.76 
L 455.308095 -41.76 
L 453.640349 -41.76 
L 451.972603 -41.76 
L 450.304857 -41.76 
L 448.637111 -41.76 
L 446.969365 -41.76 
L 445.301619 -41.76 
L 443.633873 -41.76 
L 441.966127 -41.76 
L 440.298381 -41.76 
L 438.630635 -41.76 
L 436.962889 -41.76 
L 435.295143 -41.76 
L 433.627397 -41.76 
L 431.959651 -41.76 
L 430.291905 -41.76 
L 428.624159 -41.76 
L 426.956413 -41.76 
L 425.288667 -41.76 
L 423.620922 -41.76 
L 421.953176 -41.76 
L 420.28543 -41.76 
L 418.617684 -41.76 
L 416.949938 -41.76 
L 415.282192 -41.76 
L 413.614446 -41.76 
L 411.9467 -41.76 
L 410.278954 -41.76 
L 408.611208 -41.76 
L 406.943462 -41.76 
L 405.275716 -41.76 
L 403.60797 -41.76 
L 401.940224 -41.76 
L 400.272478 -41.76 
L 398.604732 -41.76 
L 396.936986 -41.76 
L 395.26924 -41.76 
L 393.601494 -41.76 
L 391.933748 -41.76 
L 390.266002 -41.76 
L 388.598257 -41.76 
L 386.930511 -41.76 
L 385.262765 -41.76 
L 383.595019 -41.76 
L 381.927273 -41.76 
L 380.259527 -41.76 
L 378.591781 -41.76 
L 376.924035 -41.76 
L 375.256289 -41.76 
L 373.588543 -41.76 
L 371.920797 -41.76 
L 370.253051 -41.76 
L 368.585305 -41.76 
L 366.917559 -41.76 
L 365.249813 -41.76 
L 363.582067 -41.76 
L 361.914321 -41.76 
L 360.246575 -41.76 
L 358.578829 -41.76 
L 356.911083 -41.76 
L 355.243337 -41.76 
L 353.575592 -41.76 
L 351.907846 -41.76 
L 350.2401 -41.76 
L 348.572354 -41.76 
L 346.904608 -41.76 
L 345.236862 -41.76 
L 343.569116 -41.76 
L 341.90137 -41.76 
L 340.233624 -41.76 
L 338.565878 -41.76 
L 336.898132 -41.76 
L 335.230386 -41.76 
L 333.56264 -41.76 
L 331.894894 -41.76 
L 330.227148 -41.76 
L 328.559402 -41.76 
L 326.891656 -41.76 
L 325.22391 -41.76 
L 323.556164 -41.76 
L 321.888418 -41.76 
L 320.220672 -41.76 
L 318.552927 -41.76 
L 316.885181 -41.76 
L 315.217435 -41.76 
L 313.549689 -41.76 
L 311.881943 -41.76 
L 310.214197 -41.76 
L 308.546451 -41.76 
L 306.878705 -41.76 
L 305.210959 -41.76 
L 303.543213 -41.76 
L 301.875467 -41.76 
L 300.207721 -41.76 
L 298.539975 -41.76 
L 296.872229 -41.76 
L 295.204483 -41.76 
L 293.536737 -41.76 
L 291.868991 -41.76 
L 290.201245 -41.76 
L 288.533499 -41.76 
L 286.865753 -41.76 
L 285.198007 -41.76 
L 283.530262 -41.76 
L 281.862516 -41.76 
L 280.19477 -41.76 
L 278.527024 -41.76 
L 276.859278 -41.76 
L 275.191532 -41.76 
L 273.523786 -41.76 
L 271.85604 -41.76 
L 270.188294 -41.76 
L 268.520548 -41.76 
L 266.852802 -41.76 
L 265.185056 -41.76 
L 263.51731 -41.76 
L 261.849564 -41.76 
L 260.181818 -41.76 
L 258.514072 -41.76 
L 256.846326 -41.76 
L 255.17858 -41.76 
L 253.510834 -41.76 
L 251.843088 -41.76 
L 250.175342 -41.76 
L 248.507597 -41.76 
L 246.839851 -41.76 
L 245.172105 -41.76 
L 243.504359 -41.76 
L 241.836613 -41.76 
L 240.168867 -41.76 
L 238.501121 -41.76 
L 236.833375 -41.76 
L 235.165629 -41.76 
L 233.497883 -41.76 
L 231.830137 -41.76 
L 230.162391 -41.76 
L 228.494645 -41.76 
L 226.826899 -41.76 
L 225.159153 -41.76 
L 223.491407 -41.76 
L 221.823661 -41.76 
L 220.155915 -41.76 
L 218.488169 -41.76 
L 216.820423 -41.76 
L 215.152677 -41.76 
L 213.484932 -41.76 
L 211.817186 -41.76 
L 210.14944 -41.76 
L 208.481694 -41.76 
L 206.813948 -41.76 
L 205.146202 -41.76 
L 203.478456 -41.76 
L 201.81071 -41.76 
L 200.142964 -41.76 
L 198.475218 -41.76 
L 196.807472 -41.76 
L 195.139726 -41.76 
L 193.47198 -41.76 
L 191.804234 -41.76 
L 190.136488 -41.76 
L 188.468742 -41.76 
L 186.800996 -41.76 
L 185.13325 -41.76 
L 183.465504 -41.76 
L 181.797758 -41.76 
L 180.130012 -41.76 
L 178.462267 -41.76 
L 176.794521 -41.76 
L 175.126775 -41.76 
L 173.459029 -41.76 
L 171.791283 -41.76 
L 170.123537 -41.76 
L 168.455791 -41.76 
L 166.788045 -41.76 
L 165.120299 -41.76 
L 163.452553 -41.76 
L 161.784807 -41.76 
L 160.117061 -41.76 
L 158.449315 -41.76 
L 156.781569 -41.76 
L 155.113823 -41.76 
L 153.446077 -41.76 
L 151.778331 -41.76 
L 150.110585 -41.76 
L 148.442839 -41.76 
L 146.775093 -41.76 
L 145.107347 -41.76 
L 143.439601 -41.76 
L 141.771856 -41.76 
L 140.10411 -41.76 
L 138.436364 -41.76 
z
" style="stroke: #00f7ff; stroke-opacity: 0.25"/>
    </defs>
    <g clip-path="url(#p66362519a4)">
     <use xlink:href="#m6cf62f1c46" x="0" y="288" style="fill: #00f7ff; fill-opacity: 0.25; stroke: #00f7ff; stroke-opacity: 0.25"/>
    </g>
   </g>
   <g id="line2d_1">
    <path d="M 138.436364 246.24 
L 151.778331 246.24 
L 153.446077 245.56349 
L 156.781569 245.56349 
L 158.449315 244.21047 
L 163.452553 242.18094 
L 165.120299 242.18094 
L 168.455791 240.827919 
L 170.123537 234.739329 
L 376.924035 234.739329 
L 378.591781 232.709799 
L 380.259527 232.709799 
L 383.595019 231.356779 
L 386.930511 231.356779 
L 388.598257 228.650738 
L 408.611208 228.650738 
L 410.278954 227.974228 
L 420.28543 227.974228 
L 421.953176 224.591678 
L 425.288667 221.885638 
L 428.624159 221.885638 
L 430.291905 215.797047 
L 431.959651 211.737987 
L 433.627397 200.913826 
L 435.295143 198.207785 
L 436.962889 194.825235 
L 438.630635 194.825235 
L 440.298381 182.648054 
L 441.966127 181.971544 
L 443.633873 162.352752 
L 445.301619 154.234631 
L 446.969365 150.852081 
L 453.640349 150.852081 
L 455.308095 142.73396 
L 460.311333 142.73396 
L 461.979078 137.998389 
L 463.646824 134.615839 
L 465.31457 134.615839 
L 466.982316 133.939329 
L 468.650062 133.939329 
L 470.317808 131.909799 
L 480.324284 131.909799 
L 481.99203 130.556779 
L 483.659776 129.880268 
L 485.327522 124.468188 
L 486.995268 122.438658 
L 488.663014 121.762148 
L 491.998506 121.762148 
L 493.666252 121.085638 
L 518.682441 121.085638 
L 520.350187 119.056107 
L 548.701868 119.056107 
L 550.369614 117.703087 
L 578.721295 117.703087 
L 688.792528 73.053423 
L 690.460274 70.347383 
L 723.815193 56.817181 
L 725.482939 53.434631 
L 738.824907 48.02255 
L 740.492653 46.66953 
L 745.49589 44.64 
L 747.163636 44.64 
L 747.163636 44.64 
" clip-path="url(#p66362519a4)" style="fill: none; stroke: #00f7ff; stroke-width: 3; stroke-linecap: square"/>
   </g>
   <g id="text_1">
    <!-- Total Commits Growth (Last 1 Year) -->
    <g style="fill: #00f7ff" transform="translate(337.141875 28.56) scale(0.12 -0.12)">
     <defs>
      <path id="DejaVuSans-37" d="M -19 4666 
L 3928 4666 
L 3928 4134 
L 2272 4134 
L 2272 0 
L 1638 0 
L 1638 4134 
L -19 4134 
L -19 4666 
z
" transform="scale(0.015625)"/>
      <path id="DejaVuSans-52" d="M 1959 3097 
Q 1497 3097 1228 2736 
Q 959 2375 959 1747 
Q 959 1119 1226 758 
Q 1494 397 1959 397 
Q 2419 397 2687 759 
Q 2956 1122 2956 1747 
Q 2956 2369 2687 2733 
Q 2419 3097 1959 3097 
z
M 1959 3584 
Q 2709 3584 3137 3096 
Q 3566 2609 3566 1747 
Q 3566 888 3137 398 
Q 2709 -91 1959 -91 
Q 1206 -91 779 398 
Q 353 888 353 1747 
Q 353 2609 779 3096 
Q 1206 3584 1959 3584 
z
" transform="scale(0.015625)"/>
      <path id="DejaVuSans-57" d="M 1172 4494 
L 1172 3500 
L 2356 3500 
L 2356 3053 
L 1172 3053 
L 1172 1153 
Q 1172 725 1289 603 
Q 1406 481 1766 481 
L 2356 481 
L 2356 0 
L 1766 0 
Q 1100 0 847 248 
Q 594 497 594 1153 
L 594 3053 
L 172 3053 
L 172 3500 
L 594 3500 
L 594 4494 
L 1172 4494 
z
" transform="scale(0.015625)"/>
      <path id="DejaVuSans-44" d="M 2194 1759 
Q 1497 1759 1228 1600 
Q 959 1441 959 1056 
Q 959 750 1161 570 
Q 1363 391 1709 391 
Q 2188 391 2477 730 
Q 2766 1069 2766 1631 
L 2766 1759 
L 2194 1759 
z
M 3341 1997 
L 3341 0 
L 2766 0 
L 2766 531 
Q 2569 213 2275 61 
Q 1981 -91 1556 -91 
Q 1019 -91 701 211 
Q 384 513 384 1019 
Q 384 1609 779 1909 
Q 1175 2209 1959 2209 
L 2766 2209 
L 2766 2266 
Q 2766 2663 2505 2880 
Q 2244 3097 1772 3097 
Q 1472 3097 1187 3025 
Q 903 2953 641 2809 
L 641 3341 
Q 956 3463 1253 3523 
Q 1550 3584 1831 3584 
Q 2591 3584 2966 3190 
Q 3341 2797 3341 1997 
z
" transform="scale(0.015625)"/>
      <path id="DejaVuSans-4f" d="M 603 4863 
L 1178 4863 
L 1178 0 
L 603 0 
L 603 4863 
z
" transform="scale(0.015625)"/>
      <path id="DejaVuSans-3" transform="scale(0.015625)"/>
      <path id="DejaVuSans-26" d="M 4122 4306 
L 4122 3641 
Q 3803 3938 3442 4084 
Q 3081 4231 2675 4231 
Q 1875 4231 1450 3742 
Q 1025 3253 1025 2328 
Q 1025 1406 1450 917 
Q 1875 428 2675 428 
Q 3081 428 3442 575 
Q 3803 722 4122 1019 
L 4122 359 
Q 3791 134 3420 21 
Q 3050 -91 2638 -91 
Q 1578 -91 968 557 
Q 359 1206 359 2328 
Q 359 3453 968 4101 
Q 1578 4750 2638 4750 
Q 3056 4750 3426 4639 
Q 3797 4528 4122 4306 
z
" transform="scale(0.015625)"/>
      <path id="DejaVuSans-50" d="M 3328 2828 
Q 3544 3216 3844 3400 
Q 4144 3584 4550 3584 
Q 5097 3584 5394 3201 
Q 5691 2819 5691 2113 
L 5691 0 
L 5113 0 
L 5113 2094 
Q 5113 2597 4934 2840 
Q 4756 3084 4391 3084 
Q 3944 3084 3684 2787 
Q 3425 2491 3425 1978 
L 3425 0 
L 2847 0 
L 2847 2094 
Q 2847 2600 2669 2842 
Q 2491 3084 2119 3084 
Q 1678 3084 1418 2786 
Q 1159 2488 1159 1978 
L 1159 0 
L 581 0 
L 581 3500 
L 1159 3500 
L 1159 2956 
Q 1356 3278 1631 3431 
Q 1906 3584 2284 3584 
Q 2666 3584 2933 3390 
Q 3200 3197 3328 2828 
z
" transform="scale(0.015625)"/>
      <path id="DejaVuSans-4c" d="M 603 3500 
L 1178 3500 
L 1178 0 
L 603 0 
L 603 3500 
z
M 603 4863 
L 1178 4863 
L 1178 4134 
L 603 4134 
L 603 4863 
z
" transform="scale(0.015625)"/>
      <path id="DejaVuSans-56" d="M 2834 3397 
L 2834 2853 
Q 2591 2978 2328 3040 
Q 2066 3103 1784 3103 
Q 1356 3103 1142 2972 
Q 928 2841 928 2578 
Q 928 2378 1081 2264 
Q 1234 2150 1697 2047 
L 1894 2003 
Q 2506 1872 2764 1633 
Q 3022 1394 3022 966 
Q 3022 478 2636 193 
Q 2250 -91 1575 -91 
Q 1294 -91 989 -36 
Q 684 19 347 128 
L 347 722 
Q 666 556 975 473 
Q 1284 391 1588 391 
Q 1994 391 2212 530 
Q 2431 669 2431 922 
Q 2431 1156 2273 1281 
Q 2116 1406 1581 1522 
L 1381 1569 
Q 847 1681 609 1914 
Q 372 2147 372 2553 
Q 372 3047 722 3315 
Q 1072 3584 1716 3584 
Q 2034 3584 2315 3537 
Q 2597 3491 2834 3397 
z
" transform="scale(0.015625)"/>
      <path id="DejaVuSans-2a" d="M 3809 666 
L 3809 1919 
L 2778 1919 
L 2778 2438 
L 4434 2438 
L 4434 434 
Q 4069 175 3628 42 
Q 3188 -91 2688 -91 
Q 1594 -91 976 548 
Q 359 1188 359 2328 
Q 359 3472 976 4111 
Q 1594 4750 2688 4750 
Q 3144 4750 3555 4637 
Q 3966 4525 4313 4306 
L 4313 3634 
Q 3963 3931 3569 4081 
Q 3175 4231 2741 4231 
Q 1884 4231 1454 3753 
Q 1025 3275 1025 2328 
Q 1025 1384 1454 906 
Q 1884 428 2741 428 
Q 3075 428 3337 486 
Q 3600 544 3809 666 
z
" transform="scale(0.015625)"/>
      <path id="DejaVuSans-55" d="M 2631 2963 
Q 2534 3019 2420 3045 
Q 2306 3072 2169 3072 
Q 1681 3072 1420 2755 
Q 1159 2438 1159 1844 
L 1159 0 
L 581 0 
L 581 3500 
L 1159 3500 
L 1159 2956 
Q 1341 3275 1631 3429 
Q 1922 3584 2338 3584 
Q 2397 3584 2469 3576 
Q 2541 3569 2628 3553 
L 2631 2963 
z
" transform="scale(0.015625)"/>
      <path id="DejaVuSans-5a" d="M 269 3500 
L 844 3500 
L 1563 769 
L 2278 3500 
L 2956 3500 
L 3675 769 
L 4391 3500 
L 4966 3500 
L 4050 0 
L 3372 0 
L 2619 2869 
L 1863 0 
L 1184 0 
L 269 3500 
z
" transform="scale(0.015625)"/>
      <path id="DejaVuSans-4b" d="M 3513 2113 
L 3513 0 
L 2938 0 
L 2938 2094 
Q 2938 2591 2744 2837 
Q 2550 3084 2163 3084 
Q 1697 3084 1428 2787 
Q 1159 2491 1159 1978 
L 1159 0 
L 581 0 
L 581 4863 
L 1159 4863 
L 1159 2956 
Q 1366 3272 1645 3428 
Q 1925 3584 2291 3584 
Q 2894 3584 3203 3211 
Q 3513 2838 3513 2113 
z
" transform="scale(0.015625)"/>
      <path id="DejaVuSans-b" d="M 1984 4856 
Q 1566 4138 1362 3434 
Q 1159 2731 1159 2009 
Q 1159 1288 1364 580 
Q 1569 -128 1984 -844 
L 1484 -844 
Q 1016 -109 783 600 
Q 550 1309 550 2009 
Q 550 2706 781 3412 
Q 1013 4119 1484 4856 
L 1984 4856 
z
" transform="scale(0.015625)"/>
      <path id="DejaVuSans-2f" d="M 628 4666 
L 1259 4666 
L 1259 531 
L 3531 531 
L 3531 0 
L 628 0 
L 628 4666 
z
" transform="scale(0.015625)"/>
      <path id="DejaVuSans-14" d="M 794 531 
L 1825 531 
L 1825 4091 
L 703 3866 
L 703 4441 
L 1819 4666 
L 2450 4666 
L 2450 531 
L 3481 531 
L 3481 0 
L 794 0 
L 794 531 
z
" transform="scale(0.015625)"/>
      <path id="DejaVuSans-3c" d="M -13 4666 
L 666 4666 
L 1959 2747 
L 3244 4666 
L 3922 4666 
L 2272 2222 
L 2272 0 
L 1638 0 
L 1638 2222 
L -13 4666 
z
" transform="scale(0.015625)"/>
      <path id="DejaVuSans-48" d="M 3597 1894 
L 3597 1613 
L 953 1613 
Q 991 1019 1311 708 
Q 1631 397 2203 397 
Q 2534 397 2845 478 
Q 3156 559 3463 722 
L 3463 178 
Q 3153 47 2828 -22 
Q 2503 -91 2169 -91 
Q 1331 -91 842 396 
Q 353 884 353 1716 
Q 353 2575 817 3079 
Q 1281 3584 2069 3584 
Q 2775 3584 3186 3129 
Q 3597 2675 3597 1894 
z
M 3022 2063 
Q 3016 2534 2758 2815 
Q 2500 3097 2075 3097 
Q 1594 3097 1305 2825 
Q 1016 2553 972 2059 
L 3022 2063 
z
" transform="scale(0.015625)"/>
      <path id="DejaVuSans-c" d="M 513 4856 
L 1013 4856 
Q 1481 4119 1714 3412 
Q 1947 2706 1947 2009 
Q 1947 1309 1714 600 
Q 1481 -109 1013 -844 
L 513 -844 
Q 928 -128 1133 580 
Q 1338 1288 1338 2009 
Q 1338 2731 1133 3434 
Q 928 4138 513 4856 
z
" transform="scale(0.015625)"/>
     </defs>
     <use xlink:href="#DejaVuSans-37"/>
     <use xlink:href="#DejaVuSans-52" transform="translate(44.09375 0)"/>
     <use xlink:href="#DejaVuSans-57" transform="translate(105.28125 0)"/>
     <use xlink:href="#DejaVuSans-44" transform="translate(144.484375 0)"/>
     <use xlink:href="#DejaVuSans-4f" transform="translate(205.765625 0)"/>
     <use xlink:href="#DejaVuSans-3" transform="translate(233.546875 0)"/>
     <use xlink:href="#DejaVuSans-26" transform="translate(265.328125 0)"/>
     <use xlink:href="#DejaVuSans-52" transform="translate(335.15625 0)"/>
     <use xlink:href="#DejaVuSans-50" transform="translate(396.34375 0)"/>
     <use xlink:href="#DejaVuSans-50" transform="translate(493.75 0)"/>
     <use xlink:href="#DejaVuSans-4c" transform="translate(591.15625 0)"/>
     <use xlink:href="#DejaVuSans-57" transform="translate(618.9375 0)"/>
     <use xlink:href="#DejaVuSans-56" transform="translate(658.140625 0)"/>
     <use xlink:href="#DejaVuSans-3" transform="translate(710.234375 0)"/>
     <use xlink:href="#DejaVuSans-2a" transform="translate(742.015625 0)"/>
     <use xlink:href="#DejaVuSans-55" transform="translate(819.5 0)"/>
     <use xlink:href="#DejaVuSans-52" transform="translate(858.40625 0)"/>
     <use xlink:href="#DejaVuSans-5a" transform="translate(919.59375 0)"/>
     <use xlink:href="#DejaVuSans-57" transform="translate(1001.375 0)"/>
     <use xlink:href="#DejaVuSans-4b" transform="translate(1040.578125 0)"/>
     <use xlink:href="#DejaVuSans-3" transform="translate(1103.953125 0)"/>
     <use xlink:href="#DejaVuSans-b" transform="translate(1135.734375 0)"/>
     <use xlink:href="#DejaVuSans-2f" transform="translate(1174.75 0)"/>
     <use xlink:href="#DejaVuSans-44" transform="translate(1230.46875 0)"/>
     <use xlink:href="#DejaVuSans-56" transform="translate(1291.75 0)"/>
     <use xlink:href="#DejaVuSans-57" transform="translate(1343.84375 0)"/>
     <use xlink:href="#DejaVuSans-3" transform="translate(1383.046875 0)"/>
     <use xlink:href="#DejaVuSans-14" transform="translate(1414.828125 0)"/>
     <use xlink:href="#DejaVuSans-3" transform="translate(1478.453125 0)"/>
     <use xlink:href="#DejaVuSans-3c" transform="translate(1510.234375 0)"/>
     <use xlink:href="#DejaVuSans-48" transform="translate(1558.03125 0)"/>
     <use xlink:href="#DejaVuSans-44" transform="translate(1619.5625 0)"/>
     <use xlink:href="#DejaVuSans-55" transform="translate(1680.84375 0)"/>
     <use xlink:href="#DejaVuSans-c" transform="translate(1721.953125 0)"/>
    </g>
   </g>
  </g>
 </g>
 <defs>
  <clipPath id="p66362519a4">
   <rect x="108" y="34.56" width="669.6" height="221.76"/>
  </clipPath>
 </defs>
</svg>
