<?xml version="1.0" encoding="utf-8" standalone="no"?>
<!DOCTYPE svg PUBLIC "-//W3C//DTD SVG 1.1//EN"
  "http://www.w3.org/Graphics/SVG/1.1/DTD/svg11.dtd">
<svg xmlns:xlink="http://www.w3.org/1999/xlink" width="864pt" height="288pt" viewBox="0 0 864 288" xmlns="http://www.w3.org/2000/svg" version="1.1">
 <metadata>
  <rdf:RDF xmlns:dc="http://purl.org/dc/elements/1.1/" xmlns:cc="http://creativecommons.org/ns#" xmlns:rdf="http://www.w3.org/1999/02/22-rdf-syntax-ns#">
   <cc:Work>
    <dc:type rdf:resource="http://purl.org/dc/dcmitype/StillImage"/>
    <dc:date>2026-07-12T01:55:58.412120</dc:date>
    <dc:format>image/svg+xml</dc:format>
    <dc:creator>
     <cc:Agent>
      <dc:title>Matplotlib v3.11.0, https://matplotlib.org/</dc:title>
     </cc:Agent>
    </dc:creator>
   </cc:Work>
  </rdf:RDF>
 </metadata>
 <defs>
  <style type="text/css">*{stroke-linejoin: round; stroke-linecap: butt}</style>
 </defs>
 <g id="figure_1">
  <g id="patch_1">
   <path d="M 0 288 
L 864 288 
L 864 0 
L 0 0 
L 0 288 
z
" style="fill: none"/>
  </g>
  <g id="axes_1">
   <g id="FillBetweenPolyCollection_1">
    <defs>
     <path id="md40863231b" d="M 138.436364 -41.76 
L 138.436364 -41.76 
L 140.10411 -41.76 
L 141.771856 -41.76 
L 143.439601 -41.76 
L 145.107347 -41.76 
L 146.775093 -41.76 
L 148.442839 -41.76 
L 150.110585 -41.76 
L 151.778331 -41.76 
L 153.446077 -41.76 
L 155.113823 -41.76 
L 156.781569 -41.76 
L 158.449315 -41.76 
L 160.117061 -41.76 
L 161.784807 -41.76 
L 163.452553 -41.76 
L 165.120299 -41.76 
L 166.788045 -41.76 
L 168.455791 -41.76 
L 170.123537 -41.76 
L 171.791283 -41.76 
L 173.459029 -41.76 
L 175.126775 -41.76 
L 176.794521 -41.76 
L 178.462267 -41.76 
L 180.130012 -41.76 
L 181.797758 -41.76 
L 183.465504 -41.76 
L 185.13325 -41.76 
L 186.800996 -41.76 
L 188.468742 -41.76 
L 190.136488 -41.76 
L 191.804234 -41.76 
L 193.47198 -41.76 
L 195.139726 -41.76 
L 196.807472 -41.76 
L 198.475218 -41.76 
L 200.142964 -41.76 
L 201.81071 -41.76 
L 203.478456 -41.76 
L 205.146202 -41.76 
L 206.813948 -41.76 
L 208.481694 -41.76 
L 210.14944 -41.76 
L 211.817186 -41.76 
L 213.484932 -41.76 
L 215.152677 -41.76 
L 216.820423 -41.76 
L 218.488169 -41.76 
L 220.155915 -41.76 
L 221.823661 -41.76 
L 223.491407 -41.76 
L 225.159153 -41.76 
L 226.826899 -41.76 
L 228.494645 -41.76 
L 230.162391 -41.76 
L 231.830137 -41.76 
L 233.497883 -41.76 
L 235.165629 -41.76 
L 236.833375 -41.76 
L 238.501121 -41.76 
L 240.168867 -41.76 
L 241.836613 -41.76 
L 243.504359 -41.76 
L 245.172105 -41.76 
L 246.839851 -41.76 
L 248.507597 -41.76 
L 250.175342 -41.76 
L 251.843088 -41.76 
L 253.510834 -41.76 
L 255.17858 -41.76 
L 256.846326 -41.76 
L 258.514072 -41.76 
L 260.181818 -41.76 
L 261.849564 -41.76 
L 263.51731 -41.76 
L 265.185056 -41.76 
L 266.852802 -41.76 
L 268.520548 -41.76 
L 270.188294 -41.76 
L 271.85604 -41.76 
L 273.523786 -41.76 
L 275.191532 -41.76 
L 276.859278 -41.76 
L 278.527024 -41.76 
L 280.19477 -41.76 
L 281.862516 -41.76 
L 283.530262 -41.76 
L 285.198007 -41.76 
L 286.865753 -41.76 
L 288.533499 -41.76 
L 290.201245 -41.76 
L 291.868991 -41.76 
L 293.536737 -41.76 
L 295.204483 -41.76 
L 296.872229 -41.76 
L 298.539975 -41.76 
L 300.207721 -41.76 
L 301.875467 -41.76 
L 303.543213 -41.76 
L 305.210959 -41.76 
L 306.878705 -41.76 
L 308.546451 -41.76 
L 310.214197 -41.76 
L 311.881943 -41.76 
L 313.549689 -41.76 
L 315.217435 -41.76 
L 316.885181 -41.76 
L 318.552927 -41.76 
L 320.220672 -41.76 
L 321.888418 -41.76 
L 323.556164 -41.76 
L 325.22391 -41.76 
L 326.891656 -41.76 
L 328.559402 -41.76 
L 330.227148 -41.76 
L 331.894894 -41.76 
L 333.56264 -41.76 
L 335.230386 -43.845517 
L 336.898132 -43.845517 
L 338.565878 -44.54069 
L 340.233624 -45.235862 
L 341.90137 -45.235862 
L 343.569116 -45.235862 
L 345.236862 -48.016552 
L 346.904608 -48.016552 
L 348.572354 -48.016552 
L 350.2401 -48.016552 
L 351.907846 -48.016552 
L 353.575592 -48.016552 
L 355.243337 -48.016552 
L 356.911083 -48.016552 
L 358.578829 -48.016552 
L 360.246575 -48.016552 
L 361.914321 -48.016552 
L 363.582067 -48.016552 
L 365.249813 -48.016552 
L 366.917559 -48.711724 
L 368.585305 -48.711724 
L 370.253051 -48.711724 
L 371.920797 -48.711724 
L 373.588543 -48.711724 
L 375.256289 -48.711724 
L 376.924035 -48.711724 
L 378.591781 -52.187586 
L 380.259527 -53.577931 
L 381.927273 -54.968276 
L 383.595019 -54.968276 
L 385.262765 -54.968276 
L 386.930511 -61.224828 
L 388.598257 -65.395862 
L 390.266002 -76.518621 
L 391.933748 -79.29931 
L 393.601494 -82.775172 
L 395.26924 -82.775172 
L 396.936986 -95.288276 
L 398.604732 -95.983448 
L 400.272478 -116.143448 
L 401.940224 -124.485517 
L 403.60797 -127.961379 
L 405.275716 -127.961379 
L 406.943462 -127.961379 
L 408.611208 -127.961379 
L 410.278954 -127.961379 
L 411.9467 -136.303448 
L 413.614446 -136.303448 
L 415.282192 -136.303448 
L 416.949938 -136.303448 
L 418.617684 -141.169655 
L 420.28543 -144.645517 
L 421.953176 -144.645517 
L 423.620922 -145.34069 
L 425.288667 -145.34069 
L 426.956413 -147.426207 
L 428.624159 -147.426207 
L 430.291905 -147.426207 
L 431.959651 -147.426207 
L 433.627397 -147.426207 
L 435.295143 -147.426207 
L 436.962889 -147.426207 
L 438.630635 -148.816552 
L 440.298381 -149.511724 
L 441.966127 -155.073103 
L 443.633873 -157.158621 
L 445.301619 -157.853793 
L 446.969365 -157.853793 
L 448.637111 -157.853793 
L 450.304857 -158.548966 
L 451.972603 -158.548966 
L 453.640349 -158.548966 
L 455.308095 -158.548966 
L 456.975841 -158.548966 
L 458.643587 -158.548966 
L 460.311333 -158.548966 
L 461.979078 -158.548966 
L 463.646824 -158.548966 
L 465.31457 -158.548966 
L 466.982316 -158.548966 
L 468.650062 -158.548966 
L 470.317808 -158.548966 
L 471.985554 -158.548966 
L 473.6533 -158.548966 
L 475.321046 -158.548966 
L 476.988792 -160.634483 
L 478.656538 -160.634483 
L 480.324284 -160.634483 
L 481.99203 -160.634483 
L 483.659776 -160.634483 
L 485.327522 -160.634483 
L 486.995268 -160.634483 
L 488.663014 -160.634483 
L 490.33076 -160.634483 
L 491.998506 -160.634483 
L 493.666252 -160.634483 
L 495.333998 -160.634483 
L 497.001743 -160.634483 
L 498.669489 -160.634483 
L 500.337235 -160.634483 
L 502.004981 -160.634483 
L 503.672727 -160.634483 
L 505.340473 -160.634483 
L 507.008219 -162.024828 
L 508.675965 -162.024828 
L 510.343711 -162.024828 
L 512.011457 -162.024828 
L 513.679203 -162.024828 
L 515.346949 -162.024828 
L 517.014695 -162.024828 
L 518.682441 -162.024828 
L 520.350187 -162.024828 
L 522.017933 -162.024828 
L 523.685679 -162.024828 
L 525.353425 -162.024828 
L 527.021171 -162.024828 
L 528.688917 -162.024828 
L 530.356663 -162.024828 
L 532.024408 -162.024828 
L 533.692154 -162.024828 
L 535.3599 -162.024828 
L 537.027646 -162.024828 
L 538.695392 -162.024828 
L 540.363138 -162.024828 
L 542.030884 -162.024828 
L 543.69863 -162.024828 
L 545.366376 -162.024828 
L 547.034122 -162.024828 
L 548.701868 -162.024828 
L 550.369614 -162.024828 
L 552.03736 -162.024828 
L 553.705106 -162.024828 
L 555.372852 -162.024828 
L 557.040598 -162.024828 
L 558.708344 -162.024828 
L 560.37609 -162.024828 
L 562.043836 -162.024828 
L 563.711582 -162.024828 
L 565.379328 -162.024828 
L 567.047073 -162.024828 
L 568.714819 -162.024828 
L 570.382565 -162.024828 
L 572.050311 -162.024828 
L 573.718057 -162.024828 
L 575.385803 -162.024828 
L 577.053549 -162.024828 
L 578.721295 -162.024828 
L 580.389041 -162.72 
L 582.056787 -163.415172 
L 583.724533 -164.110345 
L 585.392279 -164.805517 
L 587.060025 -165.50069 
L 588.727771 -166.195862 
L 590.395517 -166.891034 
L 592.063263 -167.586207 
L 593.731009 -168.281379 
L 595.398755 -168.976552 
L 597.066501 -169.671724 
L 598.734247 -170.366897 
L 600.401993 -171.062069 
L 602.069738 -171.757241 
L 603.737484 -172.452414 
L 605.40523 -173.147586 
L 607.072976 -173.842759 
L 608.740722 -174.537931 
L 610.408468 -175.233103 
L 612.076214 -175.928276 
L 613.74396 -176.623448 
L 615.411706 -177.318621 
L 617.079452 -178.013793 
L 618.747198 -178.708966 
L 620.414944 -179.404138 
L 622.08269 -180.09931 
L 623.750436 -180.794483 
L 625.418182 -181.489655 
L 627.085928 -182.184828 
L 628.753674 -182.88 
L 630.42142 -183.575172 
L 632.089166 -184.270345 
L 633.756912 -184.965517 
L 635.424658 -185.66069 
L 637.092403 -186.355862 
L 638.760149 -187.051034 
L 640.427895 -187.746207 
L 642.095641 -188.441379 
L 643.763387 -189.136552 
L 645.431133 -189.831724 
L 647.098879 -192.612414 
L 648.766625 -193.307586 
L 650.434371 -194.002759 
L 652.102117 -194.697931 
L 653.769863 -195.393103 
L 655.437609 -196.088276 
L 657.105355 -196.783448 
L 658.773101 -197.478621 
L 660.440847 -198.173793 
L 662.108593 -198.868966 
L 663.776339 -199.564138 
L 665.444085 -200.25931 
L 667.111831 -200.954483 
L 668.779577 -201.649655 
L 670.447323 -202.344828 
L 672.115068 -203.04 
L 673.782814 -203.735172 
L 675.45056 -204.430345 
L 677.118306 -205.125517 
L 678.786052 -205.82069 
L 680.453798 -206.515862 
L 682.121544 -209.991724 
L 683.78929 -210.686897 
L 685.457036 -211.382069 
L 687.124782 -212.077241 
L 688.792528 -212.772414 
L 690.460274 -213.467586 
L 692.12802 -214.162759 
L 693.795766 -214.857931 
L 695.463512 -215.553103 
L 697.131258 -216.943448 
L 698.799004 -217.638621 
L 700.46675 -218.333793 
L 702.134496 -219.028966 
L 703.802242 -224.590345 
L 705.469988 -226.675862 
L 707.137733 -227.371034 
L 708.805479 -228.066207 
L 710.473225 -228.761379 
L 712.140971 -229.456552 
L 713.808717 -230.151724 
L 715.476463 -230.846897 
L 717.144209 -231.542069 
L 718.811955 -232.237241 
L 720.479701 -232.932414 
L 722.147447 -233.627586 
L 723.815193 -234.322759 
L 725.482939 -235.017931 
L 727.150685 -235.713103 
L 728.818431 -236.408276 
L 730.486177 -237.103448 
L 732.153923 -237.798621 
L 733.821669 -238.493793 
L 735.489415 -239.188966 
L 737.157161 -239.884138 
L 738.824907 -240.57931 
L 740.492653 -241.274483 
L 742.160399 -241.969655 
L 743.828144 -242.664828 
L 745.49589 -243.36 
L 747.163636 -243.36 
L 747.163636 -41.76 
L 747.163636 -41.76 
L 745.49589 -41.76 
L 743.828144 -41.76 
L 742.160399 -41.76 
L 740.492653 -41.76 
L 738.824907 -41.76 
L 737.157161 -41.76 
L 735.489415 -41.76 
L 733.821669 -41.76 
L 732.153923 -41.76 
L 730.486177 -41.76 
L 728.818431 -41.76 
L 727.150685 -41.76 
L 725.482939 -41.76 
L 723.815193 -41.76 
L 722.147447 -41.76 
L 720.479701 -41.76 
L 718.811955 -41.76 
L 717.144209 -41.76 
L 715.476463 -41.76 
L 713.808717 -41.76 
L 712.140971 -41.76 
L 710.473225 -41.76 
L 708.805479 -41.76 
L 707.137733 -41.76 
L 705.469988 -41.76 
L 703.802242 -41.76 
L 702.134496 -41.76 
L 700.46675 -41.76 
L 698.799004 -41.76 
L 697.131258 -41.76 
L 695.463512 -41.76 
L 693.795766 -41.76 
L 692.12802 -41.76 
L 690.460274 -41.76 
L 688.792528 -41.76 
L 687.124782 -41.76 
L 685.457036 -41.76 
L 683.78929 -41.76 
L 682.121544 -41.76 
L 680.453798 -41.76 
L 678.786052 -41.76 
L 677.118306 -41.76 
L 675.45056 -41.76 
L 673.782814 -41.76 
L 672.115068 -41.76 
L 670.447323 -41.76 
L 668.779577 -41.76 
L 667.111831 -41.76 
L 665.444085 -41.76 
L 663.776339 -41.76 
L 662.108593 -41.76 
L 660.440847 -41.76 
L 658.773101 -41.76 
L 657.105355 -41.76 
L 655.437609 -41.76 
L 653.769863 -41.76 
L 652.102117 -41.76 
L 650.434371 -41.76 
L 648.766625 -41.76 
L 647.098879 -41.76 
L 645.431133 -41.76 
L 643.763387 -41.76 
L 642.095641 -41.76 
L 640.427895 -41.76 
L 638.760149 -41.76 
L 637.092403 -41.76 
L 635.424658 -41.76 
L 633.756912 -41.76 
L 632.089166 -41.76 
L 630.42142 -41.76 
L 628.753674 -41.76 
L 627.085928 -41.76 
L 625.418182 -41.76 
L 623.750436 -41.76 
L 622.08269 -41.76 
L 620.414944 -41.76 
L 618.747198 -41.76 
L 617.079452 -41.76 
L 615.411706 -41.76 
L 613.74396 -41.76 
L 612.076214 -41.76 
L 610.408468 -41.76 
L 608.740722 -41.76 
L 607.072976 -41.76 
L 605.40523 -41.76 
L 603.737484 -41.76 
L 602.069738 -41.76 
L 600.401993 -41.76 
L 598.734247 -41.76 
L 597.066501 -41.76 
L 595.398755 -41.76 
L 593.731009 -41.76 
L 592.063263 -41.76 
L 590.395517 -41.76 
L 588.727771 -41.76 
L 587.060025 -41.76 
L 585.392279 -41.76 
L 583.724533 -41.76 
L 582.056787 -41.76 
L 580.389041 -41.76 
L 578.721295 -41.76 
L 577.053549 -41.76 
L 575.385803 -41.76 
L 573.718057 -41.76 
L 572.050311 -41.76 
L 570.382565 -41.76 
L 568.714819 -41.76 
L 567.047073 -41.76 
L 565.379328 -41.76 
L 563.711582 -41.76 
L 562.043836 -41.76 
L 560.37609 -41.76 
L 558.708344 -41.76 
L 557.040598 -41.76 
L 555.372852 -41.76 
L 553.705106 -41.76 
L 552.03736 -41.76 
L 550.369614 -41.76 
L 548.701868 -41.76 
L 547.034122 -41.76 
L 545.366376 -41.76 
L 543.69863 -41.76 
L 542.030884 -41.76 
L 540.363138 -41.76 
L 538.695392 -41.76 
L 537.027646 -41.76 
L 535.3599 -41.76 
L 533.692154 -41.76 
L 532.024408 -41.76 
L 530.356663 -41.76 
L 528.688917 -41.76 
L 527.021171 -41.76 
L 525.353425 -41.76 
L 523.685679 -41.76 
L 522.017933 -41.76 
L 520.350187 -41.76 
L 518.682441 -41.76 
L 517.014695 -41.76 
L 515.346949 -41.76 
L 513.679203 -41.76 
L 512.011457 -41.76 
L 510.343711 -41.76 
L 508.675965 -41.76 
L 507.008219 -41.76 
L 505.340473 -41.76 
L 503.672727 -41.76 
L 502.004981 -41.76 
L 500.337235 -41.76 
L 498.669489 -41.76 
L 497.001743 -41.76 
L 495.333998 -41.76 
L 493.666252 -41.76 
L 491.998506 -41.76 
L 490.33076 -41.76 
L 488.663014 -41.76 
L 486.995268 -41.76 
L 485.327522 -41.76 
L 483.659776 -41.76 
L 481.99203 -41.76 
L 480.324284 -41.76 
L 478.656538 -41.76 
L 476.988792 -41.76 
L 475.321046 -41.76 
L 473.6533 -41.76 
L 471.985554 -41.76 
L 470.317808 -41.76 
L 468.650062 -41.76 
L 466.982316 -41.76 
L 465.31457 -41.76 
L 463.646824 -41.76 
L 461.979078 -41.76 
L 460.311333 -41.76 
L 458.643587 -41.76 
L 456.975841 -41.76 
L 455.308095 -41.76 
L 453.640349 -41.76 
L 451.972603 -41.76 
L 450.304857 -41.76 
L 448.637111 -41.76 
L 446.969365 -41.76 
L 445.301619 -41.76 
L 443.633873 -41.76 
L 441.966127 -41.76 
L 440.298381 -41.76 
L 438.630635 -41.76 
L 436.962889 -41.76 
L 435.295143 -41.76 
L 433.627397 -41.76 
L 431.959651 -41.76 
L 430.291905 -41.76 
L 428.624159 -41.76 
L 426.956413 -41.76 
L 425.288667 -41.76 
L 423.620922 -41.76 
L 421.953176 -41.76 
L 420.28543 -41.76 
L 418.617684 -41.76 
L 416.949938 -41.76 
L 415.282192 -41.76 
L 413.614446 -41.76 
L 411.9467 -41.76 
L 410.278954 -41.76 
L 408.611208 -41.76 
L 406.943462 -41.76 
L 405.275716 -41.76 
L 403.60797 -41.76 
L 401.940224 -41.76 
L 400.272478 -41.76 
L 398.604732 -41.76 
L 396.936986 -41.76 
L 395.26924 -41.76 
L 393.601494 -41.76 
L 391.933748 -41.76 
L 390.266002 -41.76 
L 388.598257 -41.76 
L 386.930511 -41.76 
L 385.262765 -41.76 
L 383.595019 -41.76 
L 381.927273 -41.76 
L 380.259527 -41.76 
L 378.591781 -41.76 
L 376.924035 -41.76 
L 375.256289 -41.76 
L 373.588543 -41.76 
L 371.920797 -41.76 
L 370.253051 -41.76 
L 368.585305 -41.76 
L 366.917559 -41.76 
L 365.249813 -41.76 
L 363.582067 -41.76 
L 361.914321 -41.76 
L 360.246575 -41.76 
L 358.578829 -41.76 
L 356.911083 -41.76 
L 355.243337 -41.76 
L 353.575592 -41.76 
L 351.907846 -41.76 
L 350.2401 -41.76 
L 348.572354 -41.76 
L 346.904608 -41.76 
L 345.236862 -41.76 
L 343.569116 -41.76 
L 341.90137 -41.76 
L 340.233624 -41.76 
L 338.565878 -41.76 
L 336.898132 -41.76 
L 335.230386 -41.76 
L 333.56264 -41.76 
L 331.894894 -41.76 
L 330.227148 -41.76 
L 328.559402 -41.76 
L 326.891656 -41.76 
L 325.22391 -41.76 
L 323.556164 -41.76 
L 321.888418 -41.76 
L 320.220672 -41.76 
L 318.552927 -41.76 
L 316.885181 -41.76 
L 315.217435 -41.76 
L 313.549689 -41.76 
L 311.881943 -41.76 
L 310.214197 -41.76 
L 308.546451 -41.76 
L 306.878705 -41.76 
L 305.210959 -41.76 
L 303.543213 -41.76 
L 301.875467 -41.76 
L 300.207721 -41.76 
L 298.539975 -41.76 
L 296.872229 -41.76 
L 295.204483 -41.76 
L 293.536737 -41.76 
L 291.868991 -41.76 
L 290.201245 -41.76 
L 288.533499 -41.76 
L 286.865753 -41.76 
L 285.198007 -41.76 
L 283.530262 -41.76 
L 281.862516 -41.76 
L 280.19477 -41.76 
L 278.527024 -41.76 
L 276.859278 -41.76 
L 275.191532 -41.76 
L 273.523786 -41.76 
L 271.85604 -41.76 
L 270.188294 -41.76 
L 268.520548 -41.76 
L 266.852802 -41.76 
L 265.185056 -41.76 
L 263.51731 -41.76 
L 261.849564 -41.76 
L 260.181818 -41.76 
L 258.514072 -41.76 
L 256.846326 -41.76 
L 255.17858 -41.76 
L 253.510834 -41.76 
L 251.843088 -41.76 
L 250.175342 -41.76 
L 248.507597 -41.76 
L 246.839851 -41.76 
L 245.172105 -41.76 
L 243.504359 -41.76 
L 241.836613 -41.76 
L 240.168867 -41.76 
L 238.501121 -41.76 
L 236.833375 -41.76 
L 235.165629 -41.76 
L 233.497883 -41.76 
L 231.830137 -41.76 
L 230.162391 -41.76 
L 228.494645 -41.76 
L 226.826899 -41.76 
L 225.159153 -41.76 
L 223.491407 -41.76 
L 221.823661 -41.76 
L 220.155915 -41.76 
L 218.488169 -41.76 
L 216.820423 -41.76 
L 215.152677 -41.76 
L 213.484932 -41.76 
L 211.817186 -41.76 
L 210.14944 -41.76 
L 208.481694 -41.76 
L 206.813948 -41.76 
L 205.146202 -41.76 
L 203.478456 -41.76 
L 201.81071 -41.76 
L 200.142964 -41.76 
L 198.475218 -41.76 
L 196.807472 -41.76 
L 195.139726 -41.76 
L 193.47198 -41.76 
L 191.804234 -41.76 
L 190.136488 -41.76 
L 188.468742 -41.76 
L 186.800996 -41.76 
L 185.13325 -41.76 
L 183.465504 -41.76 
L 181.797758 -41.76 
L 180.130012 -41.76 
L 178.462267 -41.76 
L 176.794521 -41.76 
L 175.126775 -41.76 
L 173.459029 -41.76 
L 171.791283 -41.76 
L 170.123537 -41.76 
L 168.455791 -41.76 
L 166.788045 -41.76 
L 165.120299 -41.76 
L 163.452553 -41.76 
L 161.784807 -41.76 
L 160.117061 -41.76 
L 158.449315 -41.76 
L 156.781569 -41.76 
L 155.113823 -41.76 
L 153.446077 -41.76 
L 151.778331 -41.76 
L 150.110585 -41.76 
L 148.442839 -41.76 
L 146.775093 -41.76 
L 145.107347 -41.76 
L 143.439601 -41.76 
L 141.771856 -41.76 
L 140.10411 -41.76 
L 138.436364 -41.76 
z
" style="stroke: #00f7ff; stroke-opacity: 0.25"/>
    </defs>
    <g clip-path="url(#p7ba413a625)">
     <use xlink:href="#md40863231b" x="0" y="288" style="fill: #00f7ff; fill-opacity: 0.25; stroke: #00f7ff; stroke-opacity: 0.25"/>
    </g>
   </g>
   <g id="line2d_1">
    <path d="M 138.436364 246.24 
L 333.56264 246.24 
L 335.230386 244.154483 
L 336.898132 244.154483 
L 340.233624 242.764138 
L 343.569116 242.764138 
L 345.236862 239.983448 
L 365.249813 239.983448 
L 366.917559 239.288276 
L 376.924035 239.288276 
L 378.591781 235.812414 
L 381.927273 233.031724 
L 385.262765 233.031724 
L 386.930511 226.775172 
L 388.598257 222.604138 
L 390.266002 211.481379 
L 391.933748 208.70069 
L 393.601494 205.224828 
L 395.26924 205.224828 
L 396.936986 192.711724 
L 398.604732 192.016552 
L 400.272478 171.856552 
L 401.940224 163.514483 
L 403.60797 160.038621 
L 410.278954 160.038621 
L 411.9467 151.696552 
L 416.949938 151.696552 
L 418.617684 146.830345 
L 420.28543 143.354483 
L 421.953176 143.354483 
L 423.620922 142.65931 
L 425.288667 142.65931 
L 426.956413 140.573793 
L 436.962889 140.573793 
L 438.630635 139.183448 
L 440.298381 138.488276 
L 441.966127 132.926897 
L 443.633873 130.841379 
L 445.301619 130.146207 
L 448.637111 130.146207 
L 450.304857 129.451034 
L 475.321046 129.451034 
L 476.988792 127.365517 
L 505.340473 127.365517 
L 507.008219 125.975172 
L 578.721295 125.975172 
L 645.431133 98.168276 
L 647.098879 95.387586 
L 680.453798 81.484138 
L 682.121544 78.008276 
L 695.463512 72.446897 
L 697.131258 71.056552 
L 702.134496 68.971034 
L 703.802242 63.409655 
L 705.469988 61.324138 
L 745.49589 44.64 
L 747.163636 44.64 
L 747.163636 44.64 
" clip-path="url(#p7ba413a625)" style="fill: none; stroke: #00f7ff; stroke-width: 3; stroke-linecap: square"/>
   </g>
   <g id="text_1">
    <!-- Total Commits Growth (Last 1 Year) -->
    <g style="fill: #00f7ff" transform="translate(337.141875 28.56) scale(0.12 -0.12)">
     <defs>
      <path id="DejaVuSans-37" d="M -19 4666 
L 3928 4666 
L 3928 4134 
L 2272 4134 
L 2272 0 
L 1638 0 
L 1638 4134 
L -19 4134 
L -19 4666 
z
" transform="scale(0.015625)"/>
      <path id="DejaVuSans-52" d="M 1959 3097 
Q 1497 3097 1228 2736 
Q 959 2375 959 1747 
Q 959 1119 1226 758 
Q 1494 397 1959 397 
Q 2419 397 2687 759 
Q 2956 1122 2956 1747 
Q 2956 2369 2687 2733 
Q 2419 3097 1959 3097 
z
M 1959 3584 
Q 2709 3584 3137 3096 
Q 3566 2609 3566 1747 
Q 3566 888 3137 398 
Q 2709 -91 1959 -91 
Q 1206 -91 779 398 
Q 353 888 353 1747 
Q 353 2609 779 3096 
Q 1206 3584 1959 3584 
z
" transform="scale(0.015625)"/>
      <path id="DejaVuSans-57" d="M 1172 4494 
L 1172 3500 
L 2356 3500 
L 2356 3053 
L 1172 3053 
L 1172 1153 
Q 1172 725 1289 603 
Q 1406 481 1766 481 
L 2356 481 
L 2356 0 
L 1766 0 
Q 1100 0 847 248 
Q 594 497 594 1153 
L 594 3053 
L 172 3053 
L 172 3500 
L 594 3500 
L 594 4494 
L 1172 4494 
z
" transform="scale(0.015625)"/>
      <path id="DejaVuSans-44" d="M 2194 1759 
Q 1497 1759 1228 1600 
Q 959 1441 959 1056 
Q 959 750 1161 570 
Q 1363 391 1709 391 
Q 2188 391 2477 730 
Q 2766 1069 2766 1631 
L 2766 1759 
L 2194 1759 
z
M 3341 1997 
L 3341 0 
L 2766 0 
L 2766 531 
Q 2569 213 2275 61 
Q 1981 -91 1556 -91 
Q 1019 -91 701 211 
Q 384 513 384 1019 
Q 384 1609 779 1909 
Q 1175 2209 1959 2209 
L 2766 2209 
L 2766 2266 
Q 2766 2663 2505 2880 
Q 2244 3097 1772 3097 
Q 1472 3097 1187 3025 
Q 903 2953 641 2809 
L 641 3341 
Q 956 3463 1253 3523 
Q 1550 3584 1831 3584 
Q 2591 3584 2966 3190 
Q 3341 2797 3341 1997 
z
" transform="scale(0.015625)"/>
      <path id="DejaVuSans-4f" d="M 603 4863 
L 1178 4863 
L 1178 0 
L 603 0 
L 603 4863 
z
" transform="scale(0.015625)"/>
      <path id="DejaVuSans-3" transform="scale(0.015625)"/>
      <path id="DejaVuSans-26" d="M 4122 4306 
L 4122 3641 
Q 3803 3938 3442 4084 
Q 3081 4231 2675 4231 
Q 1875 4231 1450 3742 
Q 1025 3253 1025 2328 
Q 1025 1406 1450 917 
Q 1875 428 2675 428 
Q 3081 428 3442 575 
Q 3803 722 4122 1019 
L 4122 359 
Q 3791 134 3420 21 
Q 3050 -91 2638 -91 
Q 1578 -91 968 557 
Q 359 1206 359 2328 
Q 359 3453 968 4101 
Q 1578 4750 2638 4750 
Q 3056 4750 3426 4639 
Q 3797 4528 4122 4306 
z
" transform="scale(0.015625)"/>
      <path id="DejaVuSans-50" d="M 3328 2828 
Q 3544 3216 3844 3400 
Q 4144 3584 4550 3584 
Q 5097 3584 5394 3201 
Q 5691 2819 5691 2113 
L 5691 0 
L 5113 0 
L 5113 2094 
Q 5113 2597 4934 2840 
Q 4756 3084 4391 3084 
Q 3944 3084 3684 2787 
Q 3425 2491 3425 1978 
L 3425 0 
L 2847 0 
L 2847 2094 
Q 2847 2600 2669 2842 
Q 2491 3084 2119 3084 
Q 1678 3084 1418 2786 
Q 1159 2488 1159 1978 
L 1159 0 
L 581 0 
L 581 3500 
L 1159 3500 
L 1159 2956 
Q 1356 3278 1631 3431 
Q 1906 3584 2284 3584 
Q 2666 3584 2933 3390 
Q 3200 3197 3328 2828 
z
" transform="scale(0.015625)"/>
      <path id="DejaVuSans-4c" d="M 603 3500 
L 1178 3500 
L 1178 0 
L 603 0 
L 603 3500 
z
M 603 4863 
L 1178 4863 
L 1178 4134 
L 603 4134 
L 603 4863 
z
" transform="scale(0.015625)"/>
      <path id="DejaVuSans-56" d="M 2834 3397 
L 2834 2853 
Q 2591 2978 2328 3040 
Q 2066 3103 1784 3103 
Q 1356 3103 1142 2972 
Q 928 2841 928 2578 
Q 928 2378 1081 2264 
Q 1234 2150 1697 2047 
L 1894 2003 
Q 2506 1872 2764 1633 
Q 3022 1394 3022 966 
Q 3022 478 2636 193 
Q 2250 -91 1575 -91 
Q 1294 -91 989 -36 
Q 684 19 347 128 
L 347 722 
Q 666 556 975 473 
Q 1284 391 1588 391 
Q 1994 391 2212 530 
Q 2431 669 2431 922 
Q 2431 1156 2273 1281 
Q 2116 1406 1581 1522 
L 1381 1569 
Q 847 1681 609 1914 
Q 372 2147 372 2553 
Q 372 3047 722 3315 
Q 1072 3584 1716 3584 
Q 2034 3584 2315 3537 
Q 2597 3491 2834 3397 
z
" transform="scale(0.015625)"/>
      <path id="DejaVuSans-2a" d="M 3809 666 
L 3809 1919 
L 2778 1919 
L 2778 2438 
L 4434 2438 
L 4434 434 
Q 4069 175 3628 42 
Q 3188 -91 2688 -91 
Q 1594 -91 976 548 
Q 359 1188 359 2328 
Q 359 3472 976 4111 
Q 1594 4750 2688 4750 
Q 3144 4750 3555 4637 
Q 3966 4525 4313 4306 
L 4313 3634 
Q 3963 3931 3569 4081 
Q 3175 4231 2741 4231 
Q 1884 4231 1454 3753 
Q 1025 3275 1025 2328 
Q 1025 1384 1454 906 
Q 1884 428 2741 428 
Q 3075 428 3337 486 
Q 3600 544 3809 666 
z
" transform="scale(0.015625)"/>
      <path id="DejaVuSans-55" d="M 2631 2963 
Q 2534 3019 2420 3045 
Q 2306 3072 2169 3072 
Q 1681 3072 1420 2755 
Q 1159 2438 1159 1844 
L 1159 0 
L 581 0 
L 581 3500 
L 1159 3500 
L 1159 2956 
Q 1341 3275 1631 3429 
Q 1922 3584 2338 3584 
Q 2397 3584 2469 3576 
Q 2541 3569 2628 3553 
L 2631 2963 
z
" transform="scale(0.015625)"/>
      <path id="DejaVuSans-5a" d="M 269 3500 
L 844 3500 
L 1563 769 
L 2278 3500 
L 2956 3500 
L 3675 769 
L 4391 3500 
L 4966 3500 
L 4050 0 
L 3372 0 
L 2619 2869 
L 1863 0 
L 1184 0 
L 269 3500 
z
" transform="scale(0.015625)"/>
      <path id="DejaVuSans-4b" d="M 3513 2113 
L 3513 0 
L 2938 0 
L 2938 2094 
Q 2938 2591 2744 2837 
Q 2550 3084 2163 3084 
Q 1697 3084 1428 2787 
Q 1159 2491 1159 1978 
L 1159 0 
L 581 0 
L 581 4863 
L 1159 4863 
L 1159 2956 
Q 1366 3272 1645 3428 
Q 1925 3584 2291 3584 
Q 2894 3584 3203 3211 
Q 3513 2838 3513 2113 
z
" transform="scale(0.015625)"/>
      <path id="DejaVuSans-b" d="M 1984 4856 
Q 1566 4138 1362 3434 
Q 1159 2731 1159 2009 
Q 1159 1288 1364 580 
Q 1569 -128 1984 -844 
L 1484 -844 
Q 1016 -109 783 600 
Q 550 1309 550 2009 
Q 550 2706 781 3412 
Q 1013 4119 1484 4856 
L 1984 4856 
z
" transform="scale(0.015625)"/>
      <path id="DejaVuSans-2f" d="M 628 4666 
L 1259 4666 
L 1259 531 
L 3531 531 
L 3531 0 
L 628 0 
L 628 4666 
z
" transform="scale(0.015625)"/>
      <path id="DejaVuSans-14" d="M 794 531 
L 1825 531 
L 1825 4091 
L 703 3866 
L 703 4441 
L 1819 4666 
L 2450 4666 
L 2450 531 
L 3481 531 
L 3481 0 
L 794 0 
L 794 531 
z
" transform="scale(0.015625)"/>
      <path id="DejaVuSans-3c" d="M -13 4666 
L 666 4666 
L 1959 2747 
L 3244 4666 
L 3922 4666 
L 2272 2222 
L 2272 0 
L 1638 0 
L 1638 2222 
L -13 4666 
z
" transform="scale(0.015625)"/>
      <path id="DejaVuSans-48" d="M 3597 1894 
L 3597 1613 
L 953 1613 
Q 991 1019 1311 708 
Q 1631 397 2203 397 
Q 2534 397 2845 478 
Q 3156 559 3463 722 
L 3463 178 
Q 3153 47 2828 -22 
Q 2503 -91 2169 -91 
Q 1331 -91 842 396 
Q 353 884 353 1716 
Q 353 2575 817 3079 
Q 1281 3584 2069 3584 
Q 2775 3584 3186 3129 
Q 3597 2675 3597 1894 
z
M 3022 2063 
Q 3016 2534 2758 2815 
Q 2500 3097 2075 3097 
Q 1594 3097 1305 2825 
Q 1016 2553 972 2059 
L 3022 2063 
z
" transform="scale(0.015625)"/>
      <path id="DejaVuSans-c" d="M 513 4856 
L 1013 4856 
Q 1481 4119 1714 3412 
Q 1947 2706 1947 2009 
Q 1947 1309 1714 600 
Q 1481 -109 1013 -844 
L 513 -844 
Q 928 -128 1133 580 
Q 1338 1288 1338 2009 
Q 1338 2731 1133 3434 
Q 928 4138 513 4856 
z
" transform="scale(0.015625)"/>
     </defs>
     <use xlink:href="#DejaVuSans-37"/>
     <use xlink:href="#DejaVuSans-52" transform="translate(44.09375 0)"/>
     <use xlink:href="#DejaVuSans-57" transform="translate(105.28125 0)"/>
     <use xlink:href="#DejaVuSans-44" transform="translate(144.484375 0)"/>
     <use xlink:href="#DejaVuSans-4f" transform="translate(205.765625 0)"/>
     <use xlink:href="#DejaVuSans-3" transform="translate(233.546875 0)"/>
     <use xlink:href="#DejaVuSans-26" transform="translate(265.328125 0)"/>
     <use xlink:href="#DejaVuSans-52" transform="translate(335.15625 0)"/>
     <use xlink:href="#DejaVuSans-50" transform="translate(396.34375 0)"/>
     <use xlink:href="#DejaVuSans-50" transform="translate(493.75 0)"/>
     <use xlink:href="#DejaVuSans-4c" transform="translate(591.15625 0)"/>
     <use xlink:href="#DejaVuSans-57" transform="translate(618.9375 0)"/>
     <use xlink:href="#DejaVuSans-56" transform="translate(658.140625 0)"/>
     <use xlink:href="#DejaVuSans-3" transform="translate(710.234375 0)"/>
     <use xlink:href="#DejaVuSans-2a" transform="translate(742.015625 0)"/>
     <use xlink:href="#DejaVuSans-55" transform="translate(819.5 0)"/>
     <use xlink:href="#DejaVuSans-52" transform="translate(858.40625 0)"/>
     <use xlink:href="#DejaVuSans-5a" transform="translate(919.59375 0)"/>
     <use xlink:href="#DejaVuSans-57" transform="translate(1001.375 0)"/>
     <use xlink:href="#DejaVuSans-4b" transform="translate(1040.578125 0)"/>
     <use xlink:href="#DejaVuSans-3" transform="translate(1103.953125 0)"/>
     <use xlink:href="#DejaVuSans-b" transform="translate(1135.734375 0)"/>
     <use xlink:href="#DejaVuSans-2f" transform="translate(1174.75 0)"/>
     <use xlink:href="#DejaVuSans-44" transform="translate(1230.46875 0)"/>
     <use xlink:href="#DejaVuSans-56" transform="translate(1291.75 0)"/>
     <use xlink:href="#DejaVuSans-57" transform="translate(1343.84375 0)"/>
     <use xlink:href="#DejaVuSans-3" transform="translate(1383.046875 0)"/>
     <use xlink:href="#DejaVuSans-14" transform="translate(1414.828125 0)"/>
     <use xlink:href="#DejaVuSans-3" transform="translate(1478.453125 0)"/>
     <use xlink:href="#DejaVuSans-3c" transform="translate(1510.234375 0)"/>
     <use xlink:href="#DejaVuSans-48" transform="translate(1558.03125 0)"/>
     <use xlink:href="#DejaVuSans-44" transform="translate(1619.5625 0)"/>
     <use xlink:href="#DejaVuSans-55" transform="translate(1680.84375 0)"/>
     <use xlink:href="#DejaVuSans-c" transform="translate(1721.953125 0)"/>
    </g>
   </g>
  </g>
 </g>
 <defs>
  <clipPath id="p7ba413a625">
   <rect x="108" y="34.56" width="669.6" height="221.76"/>
  </clipPath>
 </defs>
</svg>
