<?xml version="1.0" encoding="utf-8" standalone="no"?>
<!DOCTYPE svg PUBLIC "-//W3C//DTD SVG 1.1//EN"
  "http://www.w3.org/Graphics/SVG/1.1/DTD/svg11.dtd">
<svg xmlns:xlink="http://www.w3.org/1999/xlink" width="720pt" height="288pt" viewBox="0 0 720 288" xmlns="http://www.w3.org/2000/svg" version="1.1">
 <metadata>
  <rdf:RDF xmlns:dc="http://purl.org/dc/elements/1.1/" xmlns:cc="http://creativecommons.org/ns#" xmlns:rdf="http://www.w3.org/1999/02/22-rdf-syntax-ns#">
   <cc:Work>
    <dc:type rdf:resource="http://purl.org/dc/dcmitype/StillImage"/>
    <dc:date>2025-12-19T12:56:11.345632</dc:date>
    <dc:format>image/svg+xml</dc:format>
    <dc:creator>
     <cc:Agent>
      <dc:title>Matplotlib v3.10.8, https://matplotlib.org/</dc:title>
     </cc:Agent>
    </dc:creator>
   </cc:Work>
  </rdf:RDF>
 </metadata>
 <defs>
  <style type="text/css">*{stroke-linejoin: round; stroke-linecap: butt}</style>
 </defs>
 <g id="figure_1">
  <g id="patch_1">
   <path d="M 0 288 
L 720 288 
L 720 0 
L 0 0 
L 0 288 
z
" style="fill: none"/>
  </g>
  <g id="axes_1">
   <g id="FillBetweenPolyCollection_1">
    <defs>
     <path id="m1e73fc80dc" d="M 115.363636 -142.56 
L 115.363636 -142.56 
L 116.753425 -142.56 
L 118.143213 -142.56 
L 119.533001 -142.56 
L 120.92279 -142.56 
L 122.312578 -142.56 
L 123.702366 -142.56 
L 125.092154 -142.56 
L 126.481943 -142.56 
L 127.871731 -142.56 
L 129.261519 -142.56 
L 130.651308 -142.56 
L 132.041096 -142.56 
L 133.430884 -142.56 
L 134.820672 -142.56 
L 136.210461 -142.56 
L 137.600249 -142.56 
L 138.990037 -142.56 
L 140.379826 -142.56 
L 141.769614 -142.56 
L 143.159402 -142.56 
L 144.549191 -142.56 
L 145.938979 -142.56 
L 147.328767 -142.56 
L 148.718555 -142.56 
L 150.108344 -142.56 
L 151.498132 -142.56 
L 152.88792 -142.56 
L 154.277709 -142.56 
L 155.667497 -142.56 
L 157.057285 -142.56 
L 158.447073 -142.56 
L 159.836862 -142.56 
L 161.22665 -142.56 
L 162.616438 -142.56 
L 164.006227 -142.56 
L 165.396015 -142.56 
L 166.785803 -142.56 
L 168.175592 -142.56 
L 169.56538 -142.56 
L 170.955168 -142.56 
L 172.344956 -142.56 
L 173.734745 -142.56 
L 175.124533 -142.56 
L 176.514321 -142.56 
L 177.90411 -142.56 
L 179.293898 -142.56 
L 180.683686 -142.56 
L 182.073474 -142.56 
L 183.463263 -142.56 
L 184.853051 -142.56 
L 186.242839 -142.56 
L 187.632628 -142.56 
L 189.022416 -142.56 
L 190.412204 -142.56 
L 191.801993 -142.56 
L 193.191781 -142.56 
L 194.581569 -142.56 
L 195.971357 -142.56 
L 197.361146 -142.56 
L 198.750934 -142.56 
L 200.140722 -142.56 
L 201.530511 -142.56 
L 202.920299 -142.56 
L 204.310087 -142.56 
L 205.699875 -142.56 
L 207.089664 -142.56 
L 208.479452 -142.56 
L 209.86924 -142.56 
L 211.259029 -142.56 
L 212.648817 -142.56 
L 214.038605 -142.56 
L 215.428394 -142.56 
L 216.818182 -142.56 
L 218.20797 -142.56 
L 219.597758 -142.56 
L 220.987547 -142.56 
L 222.377335 -142.56 
L 223.767123 -142.56 
L 225.156912 -142.56 
L 226.5467 -142.56 
L 227.936488 -142.56 
L 229.326276 -142.56 
L 230.716065 -142.56 
L 232.105853 -142.56 
L 233.495641 -142.56 
L 234.88543 -142.56 
L 236.275218 -142.56 
L 237.665006 -142.56 
L 239.054795 -142.56 
L 240.444583 -142.56 
L 241.834371 -142.56 
L 243.224159 -142.56 
L 244.613948 -142.56 
L 246.003736 -142.56 
L 247.393524 -142.56 
L 248.783313 -142.56 
L 250.173101 -142.56 
L 251.562889 -142.56 
L 252.952677 -142.56 
L 254.342466 -142.56 
L 255.732254 -142.56 
L 257.122042 -142.56 
L 258.511831 -142.56 
L 259.901619 -142.56 
L 261.291407 -142.56 
L 262.681196 -142.56 
L 264.070984 -142.56 
L 265.460772 -142.56 
L 266.85056 -142.56 
L 268.240349 -142.56 
L 269.630137 -142.56 
L 271.019925 -142.56 
L 272.409714 -142.56 
L 273.799502 -142.56 
L 275.18929 -142.56 
L 276.579078 -142.56 
L 277.968867 -142.56 
L 279.358655 -142.56 
L 280.748443 -142.56 
L 282.138232 -142.56 
L 283.52802 -142.56 
L 284.917808 -142.56 
L 286.307597 -142.56 
L 287.697385 -142.56 
L 289.087173 -142.56 
L 290.476961 -142.56 
L 291.86675 -142.56 
L 293.256538 -142.56 
L 294.646326 -142.56 
L 296.036115 -142.56 
L 297.425903 -142.56 
L 298.815691 -142.56 
L 300.205479 -142.56 
L 301.595268 -142.56 
L 302.985056 -142.56 
L 304.374844 -142.56 
L 305.764633 -142.56 
L 307.154421 -142.56 
L 308.544209 -142.56 
L 309.933998 -142.56 
L 311.323786 -142.56 
L 312.713574 -142.56 
L 314.103362 -142.56 
L 315.493151 -142.56 
L 316.882939 -142.56 
L 318.272727 -142.56 
L 319.662516 -142.56 
L 321.052304 -142.56 
L 322.442092 -142.56 
L 323.83188 -142.56 
L 325.221669 -142.56 
L 326.611457 -142.56 
L 328.001245 -142.56 
L 329.391034 -142.56 
L 330.780822 -142.56 
L 332.17061 -142.56 
L 333.560399 -142.56 
L 334.950187 -142.56 
L 336.339975 -142.56 
L 337.729763 -142.56 
L 339.119552 -142.56 
L 340.50934 -142.56 
L 341.899128 -142.56 
L 343.288917 -142.56 
L 344.678705 -142.56 
L 346.068493 -142.56 
L 347.458281 -142.56 
L 348.84807 -142.56 
L 350.237858 -142.56 
L 351.627646 -142.56 
L 353.017435 -142.56 
L 354.407223 -142.56 
L 355.797011 -142.56 
L 357.1868 -142.56 
L 358.576588 -142.56 
L 359.966376 -142.56 
L 361.356164 -142.56 
L 362.745953 -142.56 
L 364.135741 -142.56 
L 365.525529 -142.56 
L 366.915318 -142.56 
L 368.305106 -142.56 
L 369.694894 -142.56 
L 371.084682 -142.56 
L 372.474471 -142.56 
L 373.864259 -142.56 
L 375.254047 -142.56 
L 376.643836 -142.56 
L 378.033624 -142.56 
L 379.423412 -142.56 
L 380.8132 -142.56 
L 382.202989 -142.56 
L 383.592777 -142.56 
L 384.982565 -142.56 
L 386.372354 -142.56 
L 387.762142 -142.56 
L 389.15193 -142.56 
L 390.541719 -142.56 
L 391.931507 -142.56 
L 393.321295 -142.56 
L 394.711083 -142.56 
L 396.100872 -142.56 
L 397.49066 -142.56 
L 398.880448 -142.56 
L 400.270237 -142.56 
L 401.660025 -142.56 
L 403.049813 -142.56 
L 404.439601 -142.56 
L 405.82939 -142.56 
L 407.219178 -142.56 
L 408.608966 -142.56 
L 409.998755 -142.56 
L 411.388543 -142.56 
L 412.778331 -142.56 
L 414.16812 -142.56 
L 415.557908 -142.56 
L 416.947696 -142.56 
L 418.337484 -142.56 
L 419.727273 -142.56 
L 421.117061 -142.56 
L 422.506849 -142.56 
L 423.896638 -142.56 
L 425.286426 -142.56 
L 426.676214 -142.56 
L 428.066002 -142.56 
L 429.455791 -142.56 
L 430.845579 -142.56 
L 432.235367 -142.56 
L 433.625156 -142.56 
L 435.014944 -142.56 
L 436.404732 -142.56 
L 437.794521 -142.56 
L 439.184309 -142.56 
L 440.574097 -142.56 
L 441.963885 -142.56 
L 443.353674 -142.56 
L 444.743462 -142.56 
L 446.13325 -142.56 
L 447.523039 -142.56 
L 448.912827 -142.56 
L 450.302615 -142.56 
L 451.692403 -142.56 
L 453.082192 -142.56 
L 454.47198 -142.56 
L 455.861768 -142.56 
L 457.251557 -142.56 
L 458.641345 -142.56 
L 460.031133 -142.56 
L 461.420922 -142.56 
L 462.81071 -142.56 
L 464.200498 -142.56 
L 465.590286 -142.56 
L 466.980075 -142.56 
L 468.369863 -142.56 
L 469.759651 -142.56 
L 471.14944 -142.56 
L 472.539228 -142.56 
L 473.929016 -142.56 
L 475.318804 -142.56 
L 476.708593 -142.56 
L 478.098381 -142.56 
L 479.488169 -142.56 
L 480.877958 -142.56 
L 482.267746 -142.56 
L 483.657534 -142.56 
L 485.047323 -142.56 
L 486.437111 -142.56 
L 487.826899 -142.56 
L 489.216687 -142.56 
L 490.606476 -142.56 
L 491.996264 -142.56 
L 493.386052 -142.56 
L 494.775841 -142.56 
L 496.165629 -142.56 
L 497.555417 -142.56 
L 498.945205 -142.56 
L 500.334994 -142.56 
L 501.724782 -142.56 
L 503.11457 -142.56 
L 504.504359 -142.56 
L 505.894147 -142.56 
L 507.283935 -142.56 
L 508.673724 -142.56 
L 510.063512 -142.56 
L 511.4533 -142.56 
L 512.843088 -142.56 
L 514.232877 -142.56 
L 515.622665 -142.56 
L 517.012453 -142.56 
L 518.402242 -142.56 
L 519.79203 -142.56 
L 521.181818 -142.56 
L 522.571606 -142.56 
L 523.961395 -142.56 
L 525.351183 -142.56 
L 526.740971 -142.56 
L 528.13076 -142.56 
L 529.520548 -142.56 
L 530.910336 -142.56 
L 532.300125 -142.56 
L 533.689913 -142.56 
L 535.079701 -142.56 
L 536.469489 -142.56 
L 537.859278 -142.56 
L 539.249066 -142.56 
L 540.638854 -142.56 
L 542.028643 -142.56 
L 543.418431 -142.56 
L 544.808219 -142.56 
L 546.198007 -142.56 
L 547.587796 -142.56 
L 548.977584 -142.56 
L 550.367372 -142.56 
L 551.757161 -142.56 
L 553.146949 -142.56 
L 554.536737 -142.56 
L 555.926526 -142.56 
L 557.316314 -142.56 
L 558.706102 -142.56 
L 560.09589 -142.56 
L 561.485679 -142.56 
L 562.875467 -142.56 
L 564.265255 -142.56 
L 565.655044 -142.56 
L 567.044832 -142.56 
L 568.43462 -142.56 
L 569.824408 -142.56 
L 571.214197 -142.56 
L 572.603985 -142.56 
L 573.993773 -142.56 
L 575.383562 -142.56 
L 576.77335 -142.56 
L 578.163138 -142.56 
L 579.552927 -142.56 
L 580.942715 -142.56 
L 582.332503 -142.56 
L 583.722291 -142.56 
L 585.11208 -142.56 
L 586.501868 -142.56 
L 587.891656 -142.56 
L 589.281445 -142.56 
L 590.671233 -142.56 
L 592.061021 -142.56 
L 593.450809 -142.56 
L 594.840598 -142.56 
L 596.230386 -142.56 
L 597.620174 -142.56 
L 599.009963 -142.56 
L 600.399751 -142.56 
L 601.789539 -142.56 
L 603.179328 -142.56 
L 604.569116 -142.56 
L 605.958904 -142.56 
L 607.348692 -142.56 
L 608.738481 -142.56 
L 610.128269 -142.56 
L 611.518057 -142.56 
L 612.907846 -142.56 
L 614.297634 -142.56 
L 615.687422 -142.56 
L 617.07721 -142.56 
L 618.466999 -142.56 
L 619.856787 -142.56 
L 621.246575 -142.56 
L 622.636364 -142.56 
L 622.636364 -142.56 
L 622.636364 -142.56 
L 621.246575 -142.56 
L 619.856787 -142.56 
L 618.466999 -142.56 
L 617.07721 -142.56 
L 615.687422 -142.56 
L 614.297634 -142.56 
L 612.907846 -142.56 
L 611.518057 -142.56 
L 610.128269 -142.56 
L 608.738481 -142.56 
L 607.348692 -142.56 
L 605.958904 -142.56 
L 604.569116 -142.56 
L 603.179328 -142.56 
L 601.789539 -142.56 
L 600.399751 -142.56 
L 599.009963 -142.56 
L 597.620174 -142.56 
L 596.230386 -142.56 
L 594.840598 -142.56 
L 593.450809 -142.56 
L 592.061021 -142.56 
L 590.671233 -142.56 
L 589.281445 -142.56 
L 587.891656 -142.56 
L 586.501868 -142.56 
L 585.11208 -142.56 
L 583.722291 -142.56 
L 582.332503 -142.56 
L 580.942715 -142.56 
L 579.552927 -142.56 
L 578.163138 -142.56 
L 576.77335 -142.56 
L 575.383562 -142.56 
L 573.993773 -142.56 
L 572.603985 -142.56 
L 571.214197 -142.56 
L 569.824408 -142.56 
L 568.43462 -142.56 
L 567.044832 -142.56 
L 565.655044 -142.56 
L 564.265255 -142.56 
L 562.875467 -142.56 
L 561.485679 -142.56 
L 560.09589 -142.56 
L 558.706102 -142.56 
L 557.316314 -142.56 
L 555.926526 -142.56 
L 554.536737 -142.56 
L 553.146949 -142.56 
L 551.757161 -142.56 
L 550.367372 -142.56 
L 548.977584 -142.56 
L 547.587796 -142.56 
L 546.198007 -142.56 
L 544.808219 -142.56 
L 543.418431 -142.56 
L 542.028643 -142.56 
L 540.638854 -142.56 
L 539.249066 -142.56 
L 537.859278 -142.56 
L 536.469489 -142.56 
L 535.079701 -142.56 
L 533.689913 -142.56 
L 532.300125 -142.56 
L 530.910336 -142.56 
L 529.520548 -142.56 
L 528.13076 -142.56 
L 526.740971 -142.56 
L 525.351183 -142.56 
L 523.961395 -142.56 
L 522.571606 -142.56 
L 521.181818 -142.56 
L 519.79203 -142.56 
L 518.402242 -142.56 
L 517.012453 -142.56 
L 515.622665 -142.56 
L 514.232877 -142.56 
L 512.843088 -142.56 
L 511.4533 -142.56 
L 510.063512 -142.56 
L 508.673724 -142.56 
L 507.283935 -142.56 
L 505.894147 -142.56 
L 504.504359 -142.56 
L 503.11457 -142.56 
L 501.724782 -142.56 
L 500.334994 -142.56 
L 498.945205 -142.56 
L 497.555417 -142.56 
L 496.165629 -142.56 
L 494.775841 -142.56 
L 493.386052 -142.56 
L 491.996264 -142.56 
L 490.606476 -142.56 
L 489.216687 -142.56 
L 487.826899 -142.56 
L 486.437111 -142.56 
L 485.047323 -142.56 
L 483.657534 -142.56 
L 482.267746 -142.56 
L 480.877958 -142.56 
L 479.488169 -142.56 
L 478.098381 -142.56 
L 476.708593 -142.56 
L 475.318804 -142.56 
L 473.929016 -142.56 
L 472.539228 -142.56 
L 471.14944 -142.56 
L 469.759651 -142.56 
L 468.369863 -142.56 
L 466.980075 -142.56 
L 465.590286 -142.56 
L 464.200498 -142.56 
L 462.81071 -142.56 
L 461.420922 -142.56 
L 460.031133 -142.56 
L 458.641345 -142.56 
L 457.251557 -142.56 
L 455.861768 -142.56 
L 454.47198 -142.56 
L 453.082192 -142.56 
L 451.692403 -142.56 
L 450.302615 -142.56 
L 448.912827 -142.56 
L 447.523039 -142.56 
L 446.13325 -142.56 
L 444.743462 -142.56 
L 443.353674 -142.56 
L 441.963885 -142.56 
L 440.574097 -142.56 
L 439.184309 -142.56 
L 437.794521 -142.56 
L 436.404732 -142.56 
L 435.014944 -142.56 
L 433.625156 -142.56 
L 432.235367 -142.56 
L 430.845579 -142.56 
L 429.455791 -142.56 
L 428.066002 -142.56 
L 426.676214 -142.56 
L 425.286426 -142.56 
L 423.896638 -142.56 
L 422.506849 -142.56 
L 421.117061 -142.56 
L 419.727273 -142.56 
L 418.337484 -142.56 
L 416.947696 -142.56 
L 415.557908 -142.56 
L 414.16812 -142.56 
L 412.778331 -142.56 
L 411.388543 -142.56 
L 409.998755 -142.56 
L 408.608966 -142.56 
L 407.219178 -142.56 
L 405.82939 -142.56 
L 404.439601 -142.56 
L 403.049813 -142.56 
L 401.660025 -142.56 
L 400.270237 -142.56 
L 398.880448 -142.56 
L 397.49066 -142.56 
L 396.100872 -142.56 
L 394.711083 -142.56 
L 393.321295 -142.56 
L 391.931507 -142.56 
L 390.541719 -142.56 
L 389.15193 -142.56 
L 387.762142 -142.56 
L 386.372354 -142.56 
L 384.982565 -142.56 
L 383.592777 -142.56 
L 382.202989 -142.56 
L 380.8132 -142.56 
L 379.423412 -142.56 
L 378.033624 -142.56 
L 376.643836 -142.56 
L 375.254047 -142.56 
L 373.864259 -142.56 
L 372.474471 -142.56 
L 371.084682 -142.56 
L 369.694894 -142.56 
L 368.305106 -142.56 
L 366.915318 -142.56 
L 365.525529 -142.56 
L 364.135741 -142.56 
L 362.745953 -142.56 
L 361.356164 -142.56 
L 359.966376 -142.56 
L 358.576588 -142.56 
L 357.1868 -142.56 
L 355.797011 -142.56 
L 354.407223 -142.56 
L 353.017435 -142.56 
L 351.627646 -142.56 
L 350.237858 -142.56 
L 348.84807 -142.56 
L 347.458281 -142.56 
L 346.068493 -142.56 
L 344.678705 -142.56 
L 343.288917 -142.56 
L 341.899128 -142.56 
L 340.50934 -142.56 
L 339.119552 -142.56 
L 337.729763 -142.56 
L 336.339975 -142.56 
L 334.950187 -142.56 
L 333.560399 -142.56 
L 332.17061 -142.56 
L 330.780822 -142.56 
L 329.391034 -142.56 
L 328.001245 -142.56 
L 326.611457 -142.56 
L 325.221669 -142.56 
L 323.83188 -142.56 
L 322.442092 -142.56 
L 321.052304 -142.56 
L 319.662516 -142.56 
L 318.272727 -142.56 
L 316.882939 -142.56 
L 315.493151 -142.56 
L 314.103362 -142.56 
L 312.713574 -142.56 
L 311.323786 -142.56 
L 309.933998 -142.56 
L 308.544209 -142.56 
L 307.154421 -142.56 
L 305.764633 -142.56 
L 304.374844 -142.56 
L 302.985056 -142.56 
L 301.595268 -142.56 
L 300.205479 -142.56 
L 298.815691 -142.56 
L 297.425903 -142.56 
L 296.036115 -142.56 
L 294.646326 -142.56 
L 293.256538 -142.56 
L 291.86675 -142.56 
L 290.476961 -142.56 
L 289.087173 -142.56 
L 287.697385 -142.56 
L 286.307597 -142.56 
L 284.917808 -142.56 
L 283.52802 -142.56 
L 282.138232 -142.56 
L 280.748443 -142.56 
L 279.358655 -142.56 
L 277.968867 -142.56 
L 276.579078 -142.56 
L 275.18929 -142.56 
L 273.799502 -142.56 
L 272.409714 -142.56 
L 271.019925 -142.56 
L 269.630137 -142.56 
L 268.240349 -142.56 
L 266.85056 -142.56 
L 265.460772 -142.56 
L 264.070984 -142.56 
L 262.681196 -142.56 
L 261.291407 -142.56 
L 259.901619 -142.56 
L 258.511831 -142.56 
L 257.122042 -142.56 
L 255.732254 -142.56 
L 254.342466 -142.56 
L 252.952677 -142.56 
L 251.562889 -142.56 
L 250.173101 -142.56 
L 248.783313 -142.56 
L 247.393524 -142.56 
L 246.003736 -142.56 
L 244.613948 -142.56 
L 243.224159 -142.56 
L 241.834371 -142.56 
L 240.444583 -142.56 
L 239.054795 -142.56 
L 237.665006 -142.56 
L 236.275218 -142.56 
L 234.88543 -142.56 
L 233.495641 -142.56 
L 232.105853 -142.56 
L 230.716065 -142.56 
L 229.326276 -142.56 
L 227.936488 -142.56 
L 226.5467 -142.56 
L 225.156912 -142.56 
L 223.767123 -142.56 
L 222.377335 -142.56 
L 220.987547 -142.56 
L 219.597758 -142.56 
L 218.20797 -142.56 
L 216.818182 -142.56 
L 215.428394 -142.56 
L 214.038605 -142.56 
L 212.648817 -142.56 
L 211.259029 -142.56 
L 209.86924 -142.56 
L 208.479452 -142.56 
L 207.089664 -142.56 
L 205.699875 -142.56 
L 204.310087 -142.56 
L 202.920299 -142.56 
L 201.530511 -142.56 
L 200.140722 -142.56 
L 198.750934 -142.56 
L 197.361146 -142.56 
L 195.971357 -142.56 
L 194.581569 -142.56 
L 193.191781 -142.56 
L 191.801993 -142.56 
L 190.412204 -142.56 
L 189.022416 -142.56 
L 187.632628 -142.56 
L 186.242839 -142.56 
L 184.853051 -142.56 
L 183.463263 -142.56 
L 182.073474 -142.56 
L 180.683686 -142.56 
L 179.293898 -142.56 
L 177.90411 -142.56 
L 176.514321 -142.56 
L 175.124533 -142.56 
L 173.734745 -142.56 
L 172.344956 -142.56 
L 170.955168 -142.56 
L 169.56538 -142.56 
L 168.175592 -142.56 
L 166.785803 -142.56 
L 165.396015 -142.56 
L 164.006227 -142.56 
L 162.616438 -142.56 
L 161.22665 -142.56 
L 159.836862 -142.56 
L 158.447073 -142.56 
L 157.057285 -142.56 
L 155.667497 -142.56 
L 154.277709 -142.56 
L 152.88792 -142.56 
L 151.498132 -142.56 
L 150.108344 -142.56 
L 148.718555 -142.56 
L 147.328767 -142.56 
L 145.938979 -142.56 
L 144.549191 -142.56 
L 143.159402 -142.56 
L 141.769614 -142.56 
L 140.379826 -142.56 
L 138.990037 -142.56 
L 137.600249 -142.56 
L 136.210461 -142.56 
L 134.820672 -142.56 
L 133.430884 -142.56 
L 132.041096 -142.56 
L 130.651308 -142.56 
L 129.261519 -142.56 
L 127.871731 -142.56 
L 126.481943 -142.56 
L 125.092154 -142.56 
L 123.702366 -142.56 
L 122.312578 -142.56 
L 120.92279 -142.56 
L 119.533001 -142.56 
L 118.143213 -142.56 
L 116.753425 -142.56 
L 115.363636 -142.56 
z
" style="stroke: #00f7ff; stroke-opacity: 0.25"/>
    </defs>
    <g clip-path="url(#p021d9eea0f)">
     <use xlink:href="#m1e73fc80dc" x="0" y="288" style="fill: #00f7ff; fill-opacity: 0.25; stroke: #00f7ff; stroke-opacity: 0.25"/>
    </g>
   </g>
   <g id="line2d_1">
    <path d="M 115.363636 145.44 
L 622.636364 145.44 
L 622.636364 145.44 
" clip-path="url(#p021d9eea0f)" style="fill: none; stroke: #00f7ff; stroke-width: 3; stroke-linecap: square"/>
   </g>
   <g id="text_1">
    <!-- Total Commits Growth (Last 1 Year) -->
    <g style="fill: #00f7ff" transform="translate(263.34375 28.56) scale(0.12 -0.12)">
     <defs>
      <path id="DejaVuSans-54" d="M -19 4666 
L 3928 4666 
L 3928 4134 
L 2272 4134 
L 2272 0 
L 1638 0 
L 1638 4134 
L -19 4134 
L -19 4666 
z
" transform="scale(0.015625)"/>
      <path id="DejaVuSans-6f" d="M 1959 3097 
Q 1497 3097 1228 2736 
Q 959 2375 959 1747 
Q 959 1119 1226 758 
Q 1494 397 1959 397 
Q 2419 397 2687 759 
Q 2956 1122 2956 1747 
Q 2956 2369 2687 2733 
Q 2419 3097 1959 3097 
z
M 1959 3584 
Q 2709 3584 3137 3096 
Q 3566 2609 3566 1747 
Q 3566 888 3137 398 
Q 2709 -91 1959 -91 
Q 1206 -91 779 398 
Q 353 888 353 1747 
Q 353 2609 779 3096 
Q 1206 3584 1959 3584 
z
" transform="scale(0.015625)"/>
      <path id="DejaVuSans-74" d="M 1172 4494 
L 1172 3500 
L 2356 3500 
L 2356 3053 
L 1172 3053 
L 1172 1153 
Q 1172 725 1289 603 
Q 1406 481 1766 481 
L 2356 481 
L 2356 0 
L 1766 0 
Q 1100 0 847 248 
Q 594 497 594 1153 
L 594 3053 
L 172 3053 
L 172 3500 
L 594 3500 
L 594 4494 
L 1172 4494 
z
" transform="scale(0.015625)"/>
      <path id="DejaVuSans-61" d="M 2194 1759 
Q 1497 1759 1228 1600 
Q 959 1441 959 1056 
Q 959 750 1161 570 
Q 1363 391 1709 391 
Q 2188 391 2477 730 
Q 2766 1069 2766 1631 
L 2766 1759 
L 2194 1759 
z
M 3341 1997 
L 3341 0 
L 2766 0 
L 2766 531 
Q 2569 213 2275 61 
Q 1981 -91 1556 -91 
Q 1019 -91 701 211 
Q 384 513 384 1019 
Q 384 1609 779 1909 
Q 1175 2209 1959 2209 
L 2766 2209 
L 2766 2266 
Q 2766 2663 2505 2880 
Q 2244 3097 1772 3097 
Q 1472 3097 1187 3025 
Q 903 2953 641 2809 
L 641 3341 
Q 956 3463 1253 3523 
Q 1550 3584 1831 3584 
Q 2591 3584 2966 3190 
Q 3341 2797 3341 1997 
z
" transform="scale(0.015625)"/>
      <path id="DejaVuSans-6c" d="M 603 4863 
L 1178 4863 
L 1178 0 
L 603 0 
L 603 4863 
z
" transform="scale(0.015625)"/>
      <path id="DejaVuSans-20" transform="scale(0.015625)"/>
      <path id="DejaVuSans-43" d="M 4122 4306 
L 4122 3641 
Q 3803 3938 3442 4084 
Q 3081 4231 2675 4231 
Q 1875 4231 1450 3742 
Q 1025 3253 1025 2328 
Q 1025 1406 1450 917 
Q 1875 428 2675 428 
Q 3081 428 3442 575 
Q 3803 722 4122 1019 
L 4122 359 
Q 3791 134 3420 21 
Q 3050 -91 2638 -91 
Q 1578 -91 968 557 
Q 359 1206 359 2328 
Q 359 3453 968 4101 
Q 1578 4750 2638 4750 
Q 3056 4750 3426 4639 
Q 3797 4528 4122 4306 
z
" transform="scale(0.015625)"/>
      <path id="DejaVuSans-6d" d="M 3328 2828 
Q 3544 3216 3844 3400 
Q 4144 3584 4550 3584 
Q 5097 3584 5394 3201 
Q 5691 2819 5691 2113 
L 5691 0 
L 5113 0 
L 5113 2094 
Q 5113 2597 4934 2840 
Q 4756 3084 4391 3084 
Q 3944 3084 3684 2787 
Q 3425 2491 3425 1978 
L 3425 0 
L 2847 0 
L 2847 2094 
Q 2847 2600 2669 2842 
Q 2491 3084 2119 3084 
Q 1678 3084 1418 2786 
Q 1159 2488 1159 1978 
L 1159 0 
L 581 0 
L 581 3500 
L 1159 3500 
L 1159 2956 
Q 1356 3278 1631 3431 
Q 1906 3584 2284 3584 
Q 2666 3584 2933 3390 
Q 3200 3197 3328 2828 
z
" transform="scale(0.015625)"/>
      <path id="DejaVuSans-69" d="M 603 3500 
L 1178 3500 
L 1178 0 
L 603 0 
L 603 3500 
z
M 603 4863 
L 1178 4863 
L 1178 4134 
L 603 4134 
L 603 4863 
z
" transform="scale(0.015625)"/>
      <path id="DejaVuSans-73" d="M 2834 3397 
L 2834 2853 
Q 2591 2978 2328 3040 
Q 2066 3103 1784 3103 
Q 1356 3103 1142 2972 
Q 928 2841 928 2578 
Q 928 2378 1081 2264 
Q 1234 2150 1697 2047 
L 1894 2003 
Q 2506 1872 2764 1633 
Q 3022 1394 3022 966 
Q 3022 478 2636 193 
Q 2250 -91 1575 -91 
Q 1294 -91 989 -36 
Q 684 19 347 128 
L 347 722 
Q 666 556 975 473 
Q 1284 391 1588 391 
Q 1994 391 2212 530 
Q 2431 669 2431 922 
Q 2431 1156 2273 1281 
Q 2116 1406 1581 1522 
L 1381 1569 
Q 847 1681 609 1914 
Q 372 2147 372 2553 
Q 372 3047 722 3315 
Q 1072 3584 1716 3584 
Q 2034 3584 2315 3537 
Q 2597 3491 2834 3397 
z
" transform="scale(0.015625)"/>
      <path id="DejaVuSans-47" d="M 3809 666 
L 3809 1919 
L 2778 1919 
L 2778 2438 
L 4434 2438 
L 4434 434 
Q 4069 175 3628 42 
Q 3188 -91 2688 -91 
Q 1594 -91 976 548 
Q 359 1188 359 2328 
Q 359 3472 976 4111 
Q 1594 4750 2688 4750 
Q 3144 4750 3555 4637 
Q 3966 4525 4313 4306 
L 4313 3634 
Q 3963 3931 3569 4081 
Q 3175 4231 2741 4231 
Q 1884 4231 1454 3753 
Q 1025 3275 1025 2328 
Q 1025 1384 1454 906 
Q 1884 428 2741 428 
Q 3075 428 3337 486 
Q 3600 544 3809 666 
z
" transform="scale(0.015625)"/>
      <path id="DejaVuSans-72" d="M 2631 2963 
Q 2534 3019 2420 3045 
Q 2306 3072 2169 3072 
Q 1681 3072 1420 2755 
Q 1159 2438 1159 1844 
L 1159 0 
L 581 0 
L 581 3500 
L 1159 3500 
L 1159 2956 
Q 1341 3275 1631 3429 
Q 1922 3584 2338 3584 
Q 2397 3584 2469 3576 
Q 2541 3569 2628 3553 
L 2631 2963 
z
" transform="scale(0.015625)"/>
      <path id="DejaVuSans-77" d="M 269 3500 
L 844 3500 
L 1563 769 
L 2278 3500 
L 2956 3500 
L 3675 769 
L 4391 3500 
L 4966 3500 
L 4050 0 
L 3372 0 
L 2619 2869 
L 1863 0 
L 1184 0 
L 269 3500 
z
" transform="scale(0.015625)"/>
      <path id="DejaVuSans-68" d="M 3513 2113 
L 3513 0 
L 2938 0 
L 2938 2094 
Q 2938 2591 2744 2837 
Q 2550 3084 2163 3084 
Q 1697 3084 1428 2787 
Q 1159 2491 1159 1978 
L 1159 0 
L 581 0 
L 581 4863 
L 1159 4863 
L 1159 2956 
Q 1366 3272 1645 3428 
Q 1925 3584 2291 3584 
Q 2894 3584 3203 3211 
Q 3513 2838 3513 2113 
z
" transform="scale(0.015625)"/>
      <path id="DejaVuSans-28" d="M 1984 4856 
Q 1566 4138 1362 3434 
Q 1159 2731 1159 2009 
Q 1159 1288 1364 580 
Q 1569 -128 1984 -844 
L 1484 -844 
Q 1016 -109 783 600 
Q 550 1309 550 2009 
Q 550 2706 781 3412 
Q 1013 4119 1484 4856 
L 1984 4856 
z
" transform="scale(0.015625)"/>
      <path id="DejaVuSans-4c" d="M 628 4666 
L 1259 4666 
L 1259 531 
L 3531 531 
L 3531 0 
L 628 0 
L 628 4666 
z
" transform="scale(0.015625)"/>
      <path id="DejaVuSans-31" d="M 794 531 
L 1825 531 
L 1825 4091 
L 703 3866 
L 703 4441 
L 1819 4666 
L 2450 4666 
L 2450 531 
L 3481 531 
L 3481 0 
L 794 0 
L 794 531 
z
" transform="scale(0.015625)"/>
      <path id="DejaVuSans-59" d="M -13 4666 
L 666 4666 
L 1959 2747 
L 3244 4666 
L 3922 4666 
L 2272 2222 
L 2272 0 
L 1638 0 
L 1638 2222 
L -13 4666 
z
" transform="scale(0.015625)"/>
      <path id="DejaVuSans-65" d="M 3597 1894 
L 3597 1613 
L 953 1613 
Q 991 1019 1311 708 
Q 1631 397 2203 397 
Q 2534 397 2845 478 
Q 3156 559 3463 722 
L 3463 178 
Q 3153 47 2828 -22 
Q 2503 -91 2169 -91 
Q 1331 -91 842 396 
Q 353 884 353 1716 
Q 353 2575 817 3079 
Q 1281 3584 2069 3584 
Q 2775 3584 3186 3129 
Q 3597 2675 3597 1894 
z
M 3022 2063 
Q 3016 2534 2758 2815 
Q 2500 3097 2075 3097 
Q 1594 3097 1305 2825 
Q 1016 2553 972 2059 
L 3022 2063 
z
" transform="scale(0.015625)"/>
      <path id="DejaVuSans-29" d="M 513 4856 
L 1013 4856 
Q 1481 4119 1714 3412 
Q 1947 2706 1947 2009 
Q 1947 1309 1714 600 
Q 1481 -109 1013 -844 
L 513 -844 
Q 928 -128 1133 580 
Q 1338 1288 1338 2009 
Q 1338 2731 1133 3434 
Q 928 4138 513 4856 
z
" transform="scale(0.015625)"/>
     </defs>
     <use xlink:href="#DejaVuSans-54"/>
     <use xlink:href="#DejaVuSans-6f" transform="translate(44.083984 0)"/>
     <use xlink:href="#DejaVuSans-74" transform="translate(105.265625 0)"/>
     <use xlink:href="#DejaVuSans-61" transform="translate(144.474609 0)"/>
     <use xlink:href="#DejaVuSans-6c" transform="translate(205.753906 0)"/>
     <use xlink:href="#DejaVuSans-20" transform="translate(233.537109 0)"/>
     <use xlink:href="#DejaVuSans-43" transform="translate(265.324219 0)"/>
     <use xlink:href="#DejaVuSans-6f" transform="translate(335.148438 0)"/>
     <use xlink:href="#DejaVuSans-6d" transform="translate(396.330078 0)"/>
     <use xlink:href="#DejaVuSans-6d" transform="translate(493.742188 0)"/>
     <use xlink:href="#DejaVuSans-69" transform="translate(591.154297 0)"/>
     <use xlink:href="#DejaVuSans-74" transform="translate(618.9375 0)"/>
     <use xlink:href="#DejaVuSans-73" transform="translate(658.146484 0)"/>
     <use xlink:href="#DejaVuSans-20" transform="translate(710.246094 0)"/>
     <use xlink:href="#DejaVuSans-47" transform="translate(742.033203 0)"/>
     <use xlink:href="#DejaVuSans-72" transform="translate(819.523438 0)"/>
     <use xlink:href="#DejaVuSans-6f" transform="translate(858.386719 0)"/>
     <use xlink:href="#DejaVuSans-77" transform="translate(919.568359 0)"/>
     <use xlink:href="#DejaVuSans-74" transform="translate(1001.355469 0)"/>
     <use xlink:href="#DejaVuSans-68" transform="translate(1040.564453 0)"/>
     <use xlink:href="#DejaVuSans-20" transform="translate(1103.943359 0)"/>
     <use xlink:href="#DejaVuSans-28" transform="translate(1135.730469 0)"/>
     <use xlink:href="#DejaVuSans-4c" transform="translate(1174.744141 0)"/>
     <use xlink:href="#DejaVuSans-61" transform="translate(1230.457031 0)"/>
     <use xlink:href="#DejaVuSans-73" transform="translate(1291.736328 0)"/>
     <use xlink:href="#DejaVuSans-74" transform="translate(1343.835938 0)"/>
     <use xlink:href="#DejaVuSans-20" transform="translate(1383.044922 0)"/>
     <use xlink:href="#DejaVuSans-31" transform="translate(1414.832031 0)"/>
     <use xlink:href="#DejaVuSans-20" transform="translate(1478.455078 0)"/>
     <use xlink:href="#DejaVuSans-59" transform="translate(1510.242188 0)"/>
     <use xlink:href="#DejaVuSans-65" transform="translate(1558.076172 0)"/>
     <use xlink:href="#DejaVuSans-61" transform="translate(1619.599609 0)"/>
     <use xlink:href="#DejaVuSans-72" transform="translate(1680.878906 0)"/>
     <use xlink:href="#DejaVuSans-29" transform="translate(1721.992188 0)"/>
    </g>
   </g>
  </g>
 </g>
 <defs>
  <clipPath id="p021d9eea0f">
   <rect x="90" y="34.56" width="558" height="221.76"/>
  </clipPath>
 </defs>
</svg>
